<?xml version="1.0" encoding="utf-8"?>
<!-- Generator: Adobe Illustrator 27.2.0, SVG Export Plug-In . SVG Version: 6.00 Build 0)  -->
<svg version="1.1" id="Capa_1" xmlns="http://www.w3.org/2000/svg" xmlns:xlink="http://www.w3.org/1999/xlink" x="0px" y="0px"
	 viewBox="0 0 11.1 10" style="enable-background:new 0 0 11.1 10;" xml:space="preserve">
<style type="text/css">
	.st0{fill:#FFFFFF;}
</style>
<g>
	<path class="st0" d="M8.75,1.7C8.75,1.68,8.74,1.67,8.73,1.67c0,0-0.01-0.01-0.01-0.01c0,0,0,0-0.01,0c0,0-0.01-0.01-0.02-0.01
		c-0.01,0-0.02-0.01-0.03-0.01c-0.01,0-0.02,0-0.04,0c0,0-0.01,0-0.01,0C8.59,1.66,8.56,1.67,8.55,1.7
		C8.53,1.72,8.52,1.75,8.53,1.78c0,0,0,0.01,0,0.01c0.01,0.06,0.04,0.1,0.1,0.11c0,0,0.01,0,0.01,0c0,0,0.01,0,0.01,0
		c0.01,0,0.01,0,0.02,0c0.01,0,0.03-0.01,0.04-0.01c0.01,0,0.01-0.01,0.02-0.01c0,0,0.01,0,0.01-0.01c0.01-0.01,0.02-0.02,0.02-0.03
		c0,0,0-0.01,0.01-0.01c0.01-0.02,0.01-0.04,0.01-0.06C8.77,1.74,8.76,1.72,8.75,1.7z"/>
	<path class="st0" d="M5.29,5.57C5.34,5.54,5.4,5.52,5.46,5.49c0.06-0.03,0.12-0.06,0.17-0.08C5.65,5.4,5.67,5.39,5.69,5.38
		C5.73,5.36,5.76,5.34,5.8,5.32C5.83,5.31,5.85,5.3,5.88,5.29C5.9,5.27,5.92,5.26,5.95,5.25C5.96,5.24,5.98,5.23,6,5.22
		C6.01,5.22,6.02,5.21,6.04,5.2c0.15-0.08,0.3-0.16,0.44-0.25C6.59,4.88,6.7,4.81,6.8,4.73c0.04-0.03,0.07-0.05,0.11-0.08
		c0.02-0.01,0.03-0.03,0.05-0.04c0.03-0.02,0.06-0.05,0.08-0.07c0.04-0.03,0.08-0.07,0.12-0.11C7.21,4.4,7.25,4.37,7.28,4.33
		C7.33,4.28,7.37,4.24,7.41,4.2c0.01-0.01,0.02-0.03,0.04-0.04c0.11-0.13,0.21-0.26,0.28-0.42c0-0.01,0.01-0.02,0.01-0.03
		C7.74,3.7,7.74,3.68,7.75,3.67c0.03-0.1,0.06-0.2,0.06-0.31c0-0.04,0-0.09-0.01-0.13C7.8,3.19,7.79,3.14,7.78,3.1
		C7.77,3.08,7.76,3.06,7.75,3.04C7.73,2.99,7.71,2.95,7.69,2.91C7.67,2.89,7.66,2.87,7.64,2.86C7.63,2.85,7.62,2.84,7.62,2.83
		C7.6,2.82,7.59,2.8,7.57,2.79C7.55,2.77,7.54,2.76,7.51,2.75C7.51,2.74,7.5,2.74,7.49,2.73C7.48,2.73,7.47,2.72,7.45,2.71
		C7.44,2.71,7.42,2.7,7.41,2.69C7.39,2.69,7.37,2.68,7.35,2.68c-0.01,0-0.02-0.01-0.03-0.01C7.25,2.65,7.19,2.65,7.13,2.65
		c-0.01,0-0.02,0-0.03,0c-0.01,0-0.02,0-0.03,0c0,0,0,0-0.01,0c-0.01,0-0.03,0-0.04,0.01C7,2.66,6.97,2.66,6.95,2.67
		c-0.01,0-0.03,0.01-0.04,0.01c-0.01,0-0.01,0.01-0.02,0.01C6.87,2.7,6.85,2.7,6.84,2.71C6.82,2.72,6.81,2.72,6.79,2.73
		C6.78,2.74,6.76,2.75,6.75,2.75C6.7,2.78,6.65,2.81,6.61,2.85c-0.01,0-0.01,0.01-0.02,0.01C6.58,2.87,6.57,2.89,6.55,2.9
		C6.29,3.12,6.06,3.36,5.86,3.63C5.85,3.65,5.83,3.67,5.81,3.7C5.7,3.85,5.6,4.02,5.51,4.19C5.49,4.22,5.47,4.26,5.46,4.3
		C5.44,4.33,5.42,4.37,5.4,4.41c0.01,0,0.01-0.01,0.01-0.01c0.22-0.12,0.43-0.26,0.62-0.42c0.01,0,0.01-0.01,0.02-0.01
		C6.12,3.92,6.18,3.86,6.24,3.8c0.02-0.02,0.04-0.04,0.06-0.06c0,0.01,0,0.02,0,0.02c0,0.01-0.01,0.02-0.02,0.03
		C6.24,3.87,6.2,3.94,6.15,4C6.1,4.07,6.04,4.13,5.99,4.19C5.96,4.22,5.93,4.24,5.91,4.27C5.82,4.35,5.73,4.43,5.63,4.51
		C5.61,4.52,5.59,4.54,5.56,4.55C5.5,4.6,5.43,4.65,5.36,4.69c-0.04,0.03-0.1,0.05-0.12,0.09C5.22,4.82,5.2,4.87,5.18,4.91
		c-0.02,0.05-0.04,0.1-0.06,0.15C5.1,5.1,5.08,5.13,5.07,5.17c0,0.01,0,0.01-0.01,0.02C5.25,5.11,5.43,5.03,5.6,4.94
		C5.66,4.9,5.72,4.87,5.78,4.84c0.06-0.03,0.11-0.07,0.17-0.1C6.02,4.7,6.08,4.65,6.15,4.61C6.18,4.59,6.2,4.58,6.22,4.56
		c0.14-0.09,0.27-0.19,0.4-0.29c0.04-0.03,0.09-0.07,0.13-0.1c0.01-0.01,0.02-0.02,0.04-0.03C6.79,4.14,6.8,4.13,6.81,4.12
		c0.04-0.03,0.08-0.07,0.12-0.1C7,3.96,7.06,3.91,7.12,3.85c0.04-0.04,0.08-0.07,0.12-0.11v0C7.23,3.77,7.21,3.81,7.2,3.84
		c-0.02,0.03-0.03,0.06-0.05,0.1C7.13,3.96,7.11,3.98,7.1,4.01C7.08,4.03,7.06,4.06,7.05,4.09C7.02,4.12,6.99,4.16,6.96,4.2
		C6.93,4.23,6.9,4.26,6.87,4.3C6.79,4.37,6.71,4.45,6.63,4.52C6.57,4.58,6.5,4.64,6.43,4.69C6.35,4.75,6.27,4.81,6.19,4.87
		C6.13,4.9,6.08,4.94,6.03,4.97c-0.17,0.11-0.35,0.2-0.54,0.28C5.44,5.27,5.4,5.29,5.35,5.31C5.29,5.33,5.23,5.35,5.17,5.38
		C5.14,5.39,5.11,5.4,5.09,5.41c-0.01,0-0.02,0.01-0.02,0.01C5.04,5.44,5.01,5.46,4.99,5.48C4.98,5.49,4.97,5.51,4.96,5.52
		C4.95,5.53,4.95,5.54,4.94,5.55c0,0.01,0,0.01-0.01,0.02C4.92,5.6,4.92,5.64,4.92,5.68C5,5.66,5.09,5.64,5.17,5.61
		c0.01,0,0.02-0.01,0.02-0.01C5.23,5.59,5.26,5.58,5.29,5.57z"/>
	<path class="st0" d="M8.77,3.18C8.77,3.18,8.77,3.18,8.77,3.18c0-0.07,0.01-0.13,0.01-0.2c0-0.02,0.01-0.04,0.01-0.07
		c0.01-0.05,0.02-0.1,0.03-0.16c0.01-0.04,0.02-0.07,0.03-0.1c0.01-0.03,0.02-0.07,0.03-0.1C8.89,2.54,8.89,2.52,8.9,2.51
		c0.03-0.08,0.08-0.16,0.13-0.24c0.03-0.05,0.06-0.09,0.1-0.14C9.13,2.12,9.14,2.11,9.15,2.1C9.18,2.06,9.2,2.03,9.23,2
		C9.19,2.02,9.15,2.03,9.1,2.05C9.08,2.06,9.06,2.07,9.03,2.07C9.02,2.08,9.01,2.08,9,2.08C8.99,2.09,8.97,2.09,8.95,2.1
		c-0.02,0-0.03,0.01-0.05,0.01C8.82,2.12,8.75,2.13,8.67,2.13c-0.02,0-0.04,0-0.05,0c-0.04,0-0.08-0.01-0.13-0.01c0,0,0,0-0.01,0
		c-0.01,0-0.03,0-0.04-0.01c-0.01,0-0.03,0-0.04-0.01c-0.02,0-0.03,0-0.05,0c-0.03,0-0.06,0-0.08,0c-0.02,0-0.03,0-0.05,0
		c-0.08,0-0.15,0-0.23,0.01c-0.03,0-0.05,0.01-0.08,0.01c-0.01,0-0.03,0-0.04,0.01C7.84,2.14,7.81,2.14,7.78,2.15
		C7.64,2.18,7.52,2.22,7.4,2.28C7.37,2.3,7.34,2.32,7.3,2.33c-0.01,0-0.01,0.01-0.02,0.01C7.24,2.38,7.2,2.41,7.16,2.45
		c0.03,0.01,0.06,0.01,0.09,0.01c0.04,0.01,0.08,0.01,0.11,0.02C7.4,2.48,7.44,2.49,7.48,2.5c0.02,0,0.03,0.01,0.05,0.01
		C7.57,2.53,7.6,2.55,7.64,2.57c0.03,0.02,0.05,0.03,0.08,0.05C7.81,2.7,7.88,2.79,7.94,2.9c0.01,0.02,0.02,0.04,0.03,0.06
		C7.98,2.99,7.99,3.02,8,3.05c0.03,0.09,0.04,0.19,0.04,0.3c0,0.06-0.01,0.12-0.02,0.18C8.01,3.58,8,3.63,7.98,3.68
		c-0.01,0.04-0.03,0.07-0.04,0.1c-0.05,0.1-0.11,0.2-0.17,0.3C7.76,4.1,7.75,4.12,7.74,4.13C7.72,4.14,7.71,4.16,7.7,4.17
		C7.61,4.29,7.51,4.39,7.41,4.49c-0.1,0.1-0.21,0.19-0.32,0.28c-0.04,0.03-0.09,0.07-0.13,0.1C6.95,4.89,6.92,4.91,6.9,4.93
		C6.86,4.95,6.83,4.98,6.79,5C6.73,5.05,6.66,5.09,6.6,5.13C6.53,5.17,6.46,5.21,6.4,5.25c-0.01,0-0.02,0.01-0.02,0.01
		C6.36,5.27,6.34,5.28,6.32,5.29C6.25,5.33,6.18,5.37,6.11,5.41c0.04,0,0.08-0.01,0.11-0.01C6.26,5.39,6.3,5.39,6.34,5.38
		c0.1-0.02,0.19-0.04,0.28-0.06c0.01,0,0.03-0.01,0.04-0.01c0,0,0.01,0,0.01,0c0.11-0.04,0.21-0.08,0.32-0.12
		C7.09,5.14,7.2,5.1,7.31,5.06C7.34,5.05,7.37,5.04,7.4,5.03c0.35-0.12,0.65-0.33,0.88-0.6C8.3,4.41,8.31,4.4,8.33,4.38
		c0.03-0.03,0.05-0.07,0.08-0.11c0,0,0.01-0.01,0.01-0.01c0.02-0.03,0.04-0.07,0.07-0.1c0.04-0.06,0.07-0.12,0.1-0.19
		c0.07-0.14,0.12-0.3,0.15-0.46C8.74,3.46,8.75,3.4,8.76,3.35c0,0,0,0,0,0c0-0.01,0-0.01,0-0.02C8.76,3.28,8.77,3.23,8.77,3.18z"/>
	<path class="st0" d="M7.25,2.16c0.03-0.03,0.07-0.05,0.1-0.08c0.03-0.02,0.06-0.05,0.09-0.07c0.05-0.04,0.1-0.08,0.16-0.12
		c0.05-0.04,0.1-0.08,0.16-0.11c0.07-0.05,0.14-0.09,0.21-0.13C8,1.63,8.03,1.61,8.07,1.6c0.18-0.08,0.37-0.12,0.57-0.12
		c0,0,0,0,0,0c0.03,0,0.05,0,0.08,0c0.02,0,0.03,0,0.05,0c0.02,0,0.05,0.01,0.07,0.01C8.9,1.5,8.96,1.51,9.02,1.53
		c0.06,0.01,0.11,0.02,0.17,0.03c0.01,0,0.02,0,0.03,0s0.02,0,0.03,0c0.01,0,0.02,0,0.04-0.01c0.01,0,0.03-0.01,0.04-0.02
		c0,0,0,0,0,0c0.01-0.01,0.02-0.01,0.03-0.02c0.01,0,0.01-0.01,0.01-0.01c0,0,0.01-0.01,0.01-0.01c0,0,0,0,0-0.01c0,0,0-0.01,0-0.01
		c0-0.01,0-0.02,0-0.03c0-0.01,0-0.02,0-0.03c0-0.02-0.01-0.04-0.02-0.06c0-0.01-0.01-0.02-0.01-0.03C9.34,1.32,9.33,1.31,9.32,1.3
		C9.31,1.28,9.29,1.26,9.27,1.25C9.26,1.24,9.25,1.23,9.24,1.22C9.21,1.21,9.18,1.19,9.16,1.17C9.1,1.14,9.05,1.11,8.99,1.09
		C8.94,1.07,8.88,1.05,8.83,1.04C8.75,1.02,8.66,1.01,8.58,1C8.56,1,8.55,1,8.53,1c-0.04,0-0.07,0-0.11,0.01
		c-0.05,0-0.09,0.01-0.14,0.02C8.21,1.04,8.14,1.06,8.07,1.09C8.05,1.09,8.02,1.1,8,1.11c-0.01,0-0.02,0.01-0.04,0.01
		C7.89,1.16,7.82,1.2,7.76,1.24C7.73,1.26,7.71,1.27,7.69,1.29C7.68,1.3,7.67,1.31,7.66,1.31C7.64,1.33,7.63,1.35,7.61,1.36
		c0,0,0,0,0,0C7.6,1.37,7.6,1.38,7.59,1.39C7.57,1.41,7.55,1.43,7.53,1.45C7.53,1.46,7.52,1.47,7.51,1.48
		c-0.14,0.2-0.23,0.44-0.32,0.67C7.18,2.18,7.17,2.2,7.16,2.22C7.19,2.2,7.22,2.18,7.25,2.16z"/>
	<path class="st0" d="M11.01,1.46c-0.05-0.07-0.12-0.1-0.15-0.11l-0.01,0c-0.33-0.15-0.68-0.22-1.05-0.22c-0.03,0-0.06,0-0.08,0
		C9.64,1.04,9.56,0.96,9.47,0.9C9.44,0.86,9.41,0.84,9.4,0.82c0,0-0.01-0.01-0.01-0.01C9.31,0.71,9.25,0.62,9.2,0.52
		C8.97,0.15,8.81,0.06,8.56,0.01C8.52,0,8.48,0,8.43,0C7.71,0,6.49,1.19,5.83,1.9C4.81,2.97,4.24,3.61,3.41,4.79
		C3.2,5.08,2.76,5.51,0.18,6.8C0.06,6.86-0.01,6.99,0,7.13c0.02,0.14,0.11,0.25,0.25,0.28c0.1,0.02,0.21,0.04,0.3,0.04c0,0,0,0,0,0
		C0.98,7.45,1.4,7.4,1.82,7.33c-0.03,0.05-0.05,0.1-0.08,0.16C1.71,7.55,1.68,7.61,1.63,7.7C1.37,8.13,1.32,8.37,1.3,8.54
		C1.27,8.97,1.42,9.26,1.84,9.58c0.27,0.2,0.55,0.31,0.78,0.31c0.05,0,0.09-0.01,0.13-0.01c0.32-0.06,0.38-0.39,0.43-0.63
		C3.19,9.16,3.2,9.08,3.22,9.02c0.1-0.31,0.22-0.52,0.33-0.71l0.03-0.05c0.39-0.63,0.44-0.68,0.93-0.75C4.59,7.5,5.26,7.42,5.73,7.4
		c0,0,0.01,0,0.01,0c0,0.01,0,0.02,0,0.03L5.71,7.61C5.57,8.49,5.47,9.13,6.35,9.71C6.62,9.89,6.93,10,7.19,10
		c0.12,0,0.22-0.02,0.31-0.07C7.96,9.7,7.91,9.16,7.9,8.94C7.89,8.85,7.88,8.77,7.87,8.7C7.85,8.47,7.84,8.27,7.85,8
		c0.03-1.05,0.2-2,0.56-3.07c0,0,0.01-0.01,0.01-0.01c0.48-0.44,0.74-0.97,0.77-1.57c0.02-0.36,0.07-0.63,0.22-0.87
		c0.13-0.21,0.29-0.33,0.49-0.37c0.19-0.04,0.38-0.06,0.57-0.09C10.58,2,10.7,1.98,10.83,1.96c0.09-0.02,0.27-0.09,0.27-0.26
		C11.1,1.62,11.07,1.54,11.01,1.46z M6.47,9.53C5.65,8.99,5.8,8.44,5.95,7.46C5.96,7.35,6,7.17,6,7.17S5.82,7.18,5.72,7.18
		C5.26,7.21,4.59,7.28,4.49,7.3C3.9,7.38,3.8,7.5,3.4,8.14C3.28,8.36,3.13,8.59,3.02,8.95C2.93,9.23,2.95,9.62,2.7,9.67
		C2.55,9.7,2.27,9.63,1.97,9.4C1.59,9.12,1.49,8.89,1.52,8.56c0.01-0.15,0.06-0.36,0.3-0.75c0.1-0.19,0.14-0.27,0.2-0.39
		c0.06-0.11,0.2-0.26,0-0.32c-0.05-0.01-0.1-0.01-0.15,0C1.44,7.19,0.99,7.23,0.55,7.24c-0.06,0-0.15-0.01-0.25-0.03
		C0.2,7.18,0.18,7.04,0.28,6.99c2.71-1.36,3.09-1.78,3.31-2.08c0.84-1.19,1.4-1.81,2.4-2.87C6.7,1.28,7.93,0.11,8.52,0.22
		c0.19,0.04,0.3,0.09,0.5,0.41c0.06,0.11,0.12,0.21,0.21,0.31c0.03,0.03,0.06,0.07,0.1,0.11C9.41,1.12,9.5,1.2,9.58,1.3
		C9.6,1.32,9.65,1.34,9.69,1.34c0.37-0.01,0.73,0.05,1.06,0.2c0.03,0.01,0.06,0.02,0.08,0.04c0.02,0.03,0.05,0.08,0.05,0.12
		c0,0.02-0.06,0.05-0.09,0.05C10.48,1.8,10.16,1.84,9.85,1.9C9.57,1.96,9.37,2.13,9.22,2.37c-0.19,0.3-0.23,0.63-0.25,0.97
		C8.94,3.91,8.69,4.38,8.27,4.76C8.25,4.78,8.23,4.79,8.21,4.81C7.9,5.74,7.67,6.74,7.63,7.99C7.62,8.37,7.66,8.62,7.68,8.95
		c0.02,0.31,0.01,0.64-0.27,0.79C7.18,9.85,6.78,9.74,6.47,9.53"/>
</g>
</svg>
