<?xml version="1.0" encoding="utf-8"?>
<!-- Generator: Adobe Illustrator 27.2.0, SVG Export Plug-In . SVG Version: 6.00 Build 0)  -->
<svg version="1.1" id="Capa_1" xmlns="http://www.w3.org/2000/svg" xmlns:xlink="http://www.w3.org/1999/xlink" x="0px" y="0px"
	 viewBox="0 0 56.44 16" style="enable-background:new 0 0 56.44 16;" xml:space="preserve">
<style type="text/css">
	.st0{fill:#7CB518;}
	.st1{fill:#FF5E00;}
</style>
<g>
	<path class="st0" d="M19.47,8.65c-0.12-0.13-0.31-0.23-0.55-0.3c-0.1-0.03-0.21,0.03-0.24,0.14c-0.04,0.16-0.11,0.34-0.2,0.55
		c-0.12,0.29-0.28,0.62-0.47,0.98c-0.19,0.36-0.41,0.75-0.67,1.17c-0.26,0.42-0.53,0.85-0.82,1.31c-0.13,0.21-0.27,0.41-0.41,0.62
		c0-0.31,0.02-0.62,0.03-0.91c0.04-0.56,0.07-1.07,0.1-1.53c0.03-0.46,0.03-0.85,0.01-1.19c-0.03-0.33-0.11-0.59-0.24-0.77
		c-0.13-0.18-0.35-0.27-0.64-0.27c-0.25,0-0.47,0.02-0.68,0.07c-0.15,0.04-0.31,0.08-0.47,0.15c-0.1,0.04-0.15,0.15-0.12,0.25
		c0.1,0.28,0.17,0.63,0.2,1.04c0.04,0.5,0.06,1.04,0.05,1.64c0,0.59-0.01,1.19-0.01,1.78c0,0.57,0.01,1.11,0.05,1.6
		c0,0.07,0.05,0.13,0.11,0.16c0.01,0.01,0.03,0.01,0.05,0.02c0.09,0.03,0.21,0.05,0.36,0.05c0.15,0,0.33-0.02,0.54-0.06
		c0.16-0.03,0.28-0.05,0.37-0.08c0.05-0.01,0.09-0.05,0.12-0.09c0.25-0.42,0.52-0.84,0.81-1.26c0.31-0.44,0.63-0.88,0.95-1.31
		c0.32-0.43,0.62-0.84,0.89-1.22c0.27-0.38,0.5-0.73,0.69-1.05c0.18-0.32,0.29-0.59,0.33-0.8C19.68,9.04,19.63,8.82,19.47,8.65z"/>
	<path class="st0" d="M22.84,5.83c-0.14-0.05-0.29-0.07-0.46-0.07c-0.16,0-0.32,0.01-0.5,0.03c-0.1,0.01-0.19,0.03-0.27,0.04
		c-0.12,0.02-0.23,0.11-0.28,0.22c-0.06,0.13-0.12,0.26-0.18,0.39c-0.08,0.18-0.14,0.37-0.17,0.57c-0.04,0.22-0.02,0.38,0.05,0.5
		c0.07,0.12,0.18,0.2,0.33,0.24c0.15,0.05,0.3,0.07,0.46,0.07c0.16,0,0.33-0.01,0.5-0.04c0.1-0.01,0.19-0.03,0.28-0.05
		c0.12-0.03,0.22-0.11,0.27-0.22c0.06-0.13,0.12-0.26,0.18-0.39c0.08-0.18,0.14-0.37,0.17-0.56c0.04-0.23,0.02-0.4-0.06-0.51
		C23.09,5.95,22.98,5.87,22.84,5.83z"/>
	<path class="st0" d="M21.56,8.49c-0.11,0-0.25,0.01-0.42,0.03c-0.03,0-0.06,0.01-0.09,0.01C20.85,8.55,20.7,8.71,20.7,8.9
		c0,0.05-0.01,0.1-0.01,0.15c-0.02,0.17-0.04,0.34-0.07,0.51c-0.08,0.44-0.18,0.88-0.32,1.31c-0.14,0.43-0.27,0.84-0.4,1.23
		c-0.13,0.39-0.22,0.76-0.28,1.1c-0.08,0.43-0.07,0.78,0,1.06c0.08,0.28,0.24,0.5,0.5,0.66c0.15,0.09,0.33,0.16,0.54,0.21
		c0.24,0.06,0.48-0.12,0.49-0.37c0,0,0,0,0-0.01c0.01-0.2,0.04-0.43,0.09-0.71c0.13-0.71,0.3-1.37,0.5-1.98
		c0.2-0.62,0.39-1.15,0.56-1.61c0.17-0.46,0.28-0.8,0.31-1.01c0.06-0.35,0.02-0.6-0.13-0.75C22.33,8.56,22.02,8.49,21.56,8.49z"/>
	<path class="st1" d="M29.96,6.96c0.05-0.09,0.1-0.18,0.14-0.28c0.15-0.33-0.13-0.69-0.48-0.61c-0.41,0.08-0.82,0.16-1.24,0.21
		c-0.68,0.09-1.35,0.14-2.02,0.14c-0.47,0-0.92-0.02-1.37-0.06c-0.32-0.03-0.63-0.07-0.94-0.13c-0.22-0.04-0.44,0.09-0.5,0.3
		c0,0,0,0,0,0c-0.05,0.15-0.08,0.31-0.11,0.48c-0.03,0.18-0.05,0.36-0.04,0.54c0,0.18,0.04,0.33,0.12,0.44
		c0.08,0.12,0.2,0.17,0.37,0.17c0.28,0,0.62-0.01,1.02-0.02c0.19-0.01,0.39-0.02,0.59-0.03c-0.02,0.09-0.04,0.17-0.07,0.26
		c-0.13,0.51-0.28,1.02-0.43,1.54c-0.15,0.51-0.3,1.01-0.45,1.47c-0.14,0.47-0.27,0.89-0.38,1.27c-0.11,0.38-0.19,0.68-0.23,0.92
		c-0.05,0.3-0.05,0.56,0.01,0.79c0.06,0.23,0.22,0.43,0.48,0.59c0.16,0.1,0.37,0.19,0.64,0.27c0.27,0.08,0.54-0.11,0.56-0.39
		c0.01-0.2,0.04-0.43,0.09-0.69c0.07-0.38,0.17-0.81,0.3-1.31c0.14-0.5,0.29-1.02,0.45-1.56c0.17-0.54,0.33-1.07,0.49-1.58
		c0.16-0.51,0.3-0.98,0.42-1.4C27.41,8.21,27.44,8.1,27.47,8c0,0,0,0,0,0c0.42-0.03,0.78-0.07,1.08-0.11
		c0.32-0.05,0.6-0.14,0.82-0.29C29.59,7.46,29.79,7.24,29.96,6.96z"/>
	<path class="st1" d="M34.37,8.55c-0.33,0-0.66,0.09-0.99,0.28c-0.33,0.18-0.65,0.45-0.96,0.8c-0.3,0.34-0.59,0.76-0.85,1.25
		c-0.01,0.01-0.02,0.02-0.03,0.02c-0.02,0-0.03-0.02-0.02-0.04c0.18-0.59,0.36-1.15,0.51-1.69c0.16-0.55,0.3-1.04,0.41-1.48
		c0.11-0.44,0.2-0.8,0.25-1.09c0.07-0.42,0.08-0.77,0.02-1.05c-0.06-0.28-0.21-0.49-0.46-0.64c-0.24-0.15-0.6-0.24-1.08-0.28
		c-0.02,0-0.04,0.02-0.03,0.03c0.02,0.11,0.02,0.27,0,0.47c-0.02,0.23-0.05,0.5-0.11,0.8c-0.12,0.66-0.26,1.33-0.43,2
		c-0.17,0.67-0.35,1.32-0.55,1.95c-0.19,0.63-0.38,1.22-0.55,1.77c-0.18,0.55-0.33,1.03-0.45,1.45c-0.13,0.42-0.21,0.75-0.26,1
		c-0.06,0.34,0,0.58,0.18,0.73c0.18,0.15,0.49,0.23,0.95,0.23c0.11,0,0.24-0.01,0.38-0.02c0.13-0.01,0.27-0.04,0.43-0.06
		c0.01,0,0.02-0.01,0.02-0.03c0-0.13,0.01-0.27,0.03-0.42c0.02-0.16,0.04-0.34,0.08-0.52c0.1-0.59,0.25-1.14,0.43-1.66
		c0.19-0.52,0.39-0.98,0.62-1.37c0.23-0.39,0.45-0.7,0.67-0.92c0.22-0.22,0.41-0.33,0.59-0.33c0.26,0,0.35,0.27,0.25,0.8
		c-0.05,0.26-0.12,0.54-0.22,0.84c-0.1,0.3-0.2,0.6-0.32,0.9c-0.11,0.3-0.22,0.59-0.31,0.87c-0.09,0.28-0.16,0.53-0.2,0.75
		c-0.08,0.48,0,0.82,0.25,1.02c0.25,0.2,0.7,0.3,1.35,0.3c0.2,0,0.34-0.01,0.45-0.03c0.08-0.01,0.16-0.03,0.24-0.04
		c0.03,0,0.04-0.04,0.01-0.05c-0.17-0.12-0.29-0.25-0.35-0.4c-0.07-0.17-0.07-0.42-0.01-0.76c0.07-0.4,0.18-0.82,0.33-1.25
		c0.15-0.44,0.3-0.88,0.46-1.32c0.15-0.44,0.26-0.85,0.33-1.23c0.09-0.52,0.06-0.91-0.1-1.18C35.16,8.69,34.85,8.55,34.37,8.55z"/>
	<path class="st1" d="M41.78,9.82c0.04-0.24,0.04-0.46-0.01-0.65c-0.05-0.19-0.14-0.35-0.28-0.46c-0.14-0.12-0.32-0.17-0.54-0.17
		c-0.23,0-0.46,0.07-0.71,0.21c-0.25,0.14-0.51,0.39-0.79,0.73c-0.27,0.34-0.56,0.8-0.85,1.38c-0.01,0.02-0.03,0.03-0.06,0.03
		c-0.03-0.01-0.04-0.03-0.03-0.06c0.03-0.1,0.06-0.2,0.08-0.3c0.03-0.11,0.05-0.21,0.06-0.29c0.1-0.54,0.02-0.98-0.22-1.32
		c-0.24-0.33-0.64-0.53-1.21-0.6c-0.03,0-0.06,0.02-0.05,0.05c0.01,0.23,0.01,0.48,0,0.74c-0.02,0.29-0.05,0.57-0.1,0.87
		c-0.07,0.38-0.16,0.78-0.28,1.2c-0.12,0.42-0.25,0.82-0.37,1.2c-0.13,0.38-0.24,0.73-0.34,1.03c-0.1,0.3-0.17,0.54-0.2,0.7
		c-0.06,0.33,0,0.57,0.18,0.73c0.18,0.15,0.48,0.23,0.93,0.23c0.14,0,0.27-0.01,0.41-0.02c0.13-0.01,0.26-0.03,0.4-0.06
		c0.02,0,0.04-0.02,0.04-0.04c0.01-0.12,0.02-0.25,0.03-0.38c0.01-0.15,0.04-0.33,0.07-0.52c0.1-0.56,0.23-1.08,0.4-1.58
		c0.17-0.5,0.35-0.94,0.54-1.32c0.19-0.38,0.38-0.68,0.56-0.91c0.19-0.22,0.34-0.33,0.47-0.33c0.08,0,0.14,0.04,0.16,0.11
		c0.02,0.07,0.02,0.18-0.02,0.32c0,0,0,0,0,0c-0.03,0.19-0.1,0.38-0.21,0.59c-0.09,0.18-0.19,0.35-0.29,0.49
		c-0.02,0.03-0.01,0.06,0.02,0.07c0.05,0.02,0.1,0.03,0.15,0.04c0.08,0.01,0.16,0.02,0.26,0.02c0.32,0,0.61-0.08,0.87-0.24
		c0.26-0.16,0.47-0.37,0.64-0.62C41.61,10.42,41.72,10.13,41.78,9.82z"/>
	<path class="st1" d="M44.72,5.83c-0.14-0.05-0.29-0.07-0.46-0.07c-0.16,0-0.32,0.01-0.5,0.03c-0.1,0.01-0.19,0.03-0.27,0.04
		c-0.12,0.02-0.23,0.11-0.28,0.22c-0.06,0.13-0.12,0.26-0.18,0.39c-0.08,0.18-0.14,0.37-0.17,0.57c-0.04,0.22-0.02,0.38,0.05,0.5
		c0.07,0.12,0.18,0.2,0.33,0.24c0.15,0.05,0.3,0.07,0.46,0.07c0.16,0,0.33-0.01,0.5-0.04c0.1-0.01,0.19-0.03,0.28-0.05
		c0.12-0.03,0.22-0.11,0.27-0.22c0.06-0.13,0.12-0.26,0.18-0.39c0.08-0.18,0.14-0.37,0.17-0.56c0.04-0.23,0.02-0.4-0.06-0.51
		C44.96,5.95,44.86,5.87,44.72,5.83z"/>
	<path class="st1" d="M50.8,9.33c0.05-0.29,0-0.51-0.16-0.68c-0.12-0.13-0.31-0.23-0.55-0.3c-0.1-0.03-0.21,0.03-0.24,0.14
		c-0.04,0.16-0.11,0.34-0.2,0.55c-0.12,0.29-0.28,0.62-0.47,0.98c-0.19,0.36-0.41,0.75-0.67,1.17c-0.26,0.42-0.53,0.85-0.82,1.31
		c-0.13,0.21-0.27,0.41-0.41,0.62c0-0.31,0.02-0.62,0.03-0.91c0.04-0.56,0.07-1.07,0.1-1.53c0.03-0.46,0.03-0.85,0.01-1.19
		c-0.03-0.33-0.11-0.59-0.24-0.77c-0.13-0.18-0.35-0.27-0.64-0.27c-0.25,0-0.47,0.02-0.68,0.07c-0.15,0.04-0.31,0.08-0.47,0.15
		c-0.1,0.04-0.15,0.15-0.12,0.25c0.1,0.28,0.17,0.63,0.2,1.04c0.04,0.5,0.06,1.04,0.05,1.64c0,0.59-0.01,1.19-0.01,1.78
		c0,0.57,0.01,1.11,0.05,1.6c0,0.07,0.05,0.13,0.11,0.16c0.01,0.01,0.03,0.01,0.05,0.02c0.09,0.03,0.21,0.05,0.36,0.05
		c0.15,0,0.33-0.02,0.54-0.06c0.16-0.03,0.28-0.05,0.37-0.08c0.05-0.01,0.09-0.05,0.12-0.09c0.25-0.42,0.52-0.84,0.81-1.26
		c0.31-0.44,0.63-0.88,0.95-1.31c0.32-0.43,0.62-0.84,0.89-1.22c0.27-0.38,0.5-0.73,0.69-1.05C50.65,9.82,50.76,9.55,50.8,9.33z"/>
	<path class="st1" d="M56.11,8.99c-0.29-0.29-0.74-0.43-1.34-0.43c-0.52,0-1.01,0.1-1.48,0.3c-0.47,0.2-0.9,0.47-1.29,0.83
		c-0.39,0.35-0.71,0.77-0.98,1.24c-0.26,0.48-0.45,0.99-0.54,1.55c-0.1,0.56-0.08,1.04,0.05,1.45c0.13,0.41,0.37,0.73,0.7,0.96
		c0.33,0.23,0.76,0.34,1.27,0.34c0.54,0,1.06-0.13,1.56-0.39c0.48-0.25,0.91-0.61,1.29-1.08c0.03-0.03,0.04-0.07,0.04-0.12
		c0-0.13-0.06-0.22-0.19-0.29c-0.08-0.04-0.18-0.02-0.24,0.05c-0.55,0.66-1.11,1-1.68,1c-0.35,0-0.59-0.15-0.72-0.44
		c-0.12-0.3-0.12-0.8,0-1.5c0.02-0.09,0.04-0.19,0.06-0.29c0.02,0.01,0.04,0.03,0.07,0.03c0.09,0.03,0.19,0.05,0.29,0.06
		c0.17,0.03,0.35,0.04,0.53,0.04c0.51,0,0.97-0.09,1.38-0.26c0.41-0.18,0.75-0.42,1.01-0.74c0.27-0.32,0.43-0.68,0.51-1.09
		C56.5,9.67,56.4,9.27,56.11,8.99z M54.54,9.96c-0.06,0.35-0.17,0.65-0.32,0.91c-0.15,0.26-0.34,0.46-0.56,0.6
		c-0.22,0.14-0.47,0.21-0.75,0.21h-0.14c-0.01,0-0.02,0-0.04,0.01c0.02-0.08,0.04-0.16,0.07-0.25c0.11-0.36,0.24-0.71,0.39-1.05
		c0.16-0.33,0.32-0.61,0.49-0.82c0.17-0.21,0.35-0.32,0.53-0.32c0.14,0,0.24,0.07,0.3,0.2C54.57,9.58,54.58,9.75,54.54,9.96z"/>
	<path class="st0" d="M17.75,2.28c-0.03-0.04-0.08-0.05-0.13-0.07c-0.57-0.26-1.16-0.36-1.78-0.34c-0.06,0-0.15-0.02-0.19-0.06
		c-0.13-0.16-0.28-0.3-0.43-0.41c-0.06-0.06-0.12-0.12-0.16-0.18c-0.15-0.17-0.25-0.33-0.35-0.52c-0.33-0.54-0.52-0.63-0.83-0.69
		c-0.98-0.19-3.05,1.77-4.23,3.05c-1.67,1.77-2.61,2.82-4,4.8c-0.37,0.51-1.01,1.2-5.54,3.47c-0.16,0.08-0.13,0.31,0.04,0.36
		c0.15,0.04,0.32,0.06,0.41,0.06c0.74-0.01,1.49-0.09,2.22-0.23c0.08-0.02,0.16-0.02,0.24,0.01c0.34,0.09,0.1,0.35,0,0.53
		c-0.1,0.19-0.17,0.33-0.33,0.65c-0.4,0.65-0.48,1-0.5,1.25c-0.04,0.56,0.13,0.94,0.75,1.42c0.5,0.38,0.98,0.5,1.23,0.44
		c0.42-0.08,0.38-0.73,0.52-1.19c0.19-0.6,0.44-1,0.65-1.36c0.67-1.08,0.83-1.27,1.81-1.42c0.17-0.02,1.29-0.15,2.06-0.19
		c0.17,0,0.46-0.02,0.46-0.02s-0.06,0.29-0.08,0.48c-0.25,1.65-0.5,2.57,0.88,3.46c0.52,0.35,1.19,0.54,1.56,0.35
		c0.48-0.25,0.5-0.79,0.46-1.31c-0.04-0.56-0.1-0.98-0.08-1.61c0.06-2.11,0.45-3.76,0.98-5.33c0.03-0.02,0.06-0.05,0.09-0.08
		c0.7-0.64,1.12-1.43,1.18-2.39c0.04-0.57,0.11-1.12,0.42-1.62c0.25-0.4,0.58-0.69,1.05-0.77c0.52-0.1,1.05-0.16,1.57-0.25
		c0.06-0.01,0.15-0.06,0.15-0.09C17.83,2.42,17.79,2.34,17.75,2.28z M9.66,8.37C9.64,8.39,9.61,8.4,9.58,8.42
		C9.54,8.44,9.5,8.46,9.46,8.48C9.42,8.5,9.38,8.52,9.34,8.54C9.28,8.57,9.22,8.6,9.15,8.63C9.12,8.65,9.09,8.67,9.06,8.68
		c-0.1,0.05-0.19,0.09-0.29,0.14c-0.1,0.05-0.19,0.09-0.29,0.13c-0.05,0.02-0.1,0.04-0.15,0.06c-0.01,0-0.03,0.01-0.04,0.01
		C8.15,9.07,8.01,9.11,7.86,9.14c0-0.07,0.01-0.13,0.03-0.18c0-0.01,0.01-0.02,0.01-0.03c0.01-0.02,0.02-0.04,0.03-0.06
		c0.01-0.02,0.03-0.04,0.05-0.06c0.04-0.04,0.08-0.07,0.13-0.1C8.12,8.7,8.14,8.69,8.15,8.68c0.04-0.02,0.08-0.04,0.13-0.05
		c0.1-0.04,0.21-0.08,0.31-0.12c0.08-0.03,0.15-0.06,0.23-0.1c0.31-0.14,0.61-0.29,0.9-0.47C9.8,7.9,9.89,7.84,9.98,7.78
		c0.14-0.09,0.27-0.19,0.4-0.29c0.12-0.09,0.23-0.19,0.35-0.29c0.13-0.12,0.26-0.24,0.39-0.37c0.05-0.06,0.11-0.11,0.16-0.17
		c0.05-0.06,0.1-0.12,0.14-0.18c0.03-0.04,0.06-0.09,0.09-0.13c0.03-0.04,0.05-0.08,0.07-0.12c0.03-0.05,0.06-0.1,0.09-0.16
		c0.03-0.05,0.06-0.11,0.08-0.17v0c-0.07,0.06-0.14,0.13-0.21,0.19c-0.1,0.09-0.21,0.18-0.31,0.27c-0.07,0.06-0.14,0.12-0.21,0.17
		C11.01,6.54,11,6.55,10.98,6.57c-0.02,0.02-0.04,0.03-0.06,0.05c-0.07,0.06-0.14,0.11-0.22,0.17c-0.22,0.17-0.44,0.33-0.66,0.48
		C10,7.3,9.97,7.32,9.93,7.35C9.81,7.42,9.7,7.5,9.58,7.57C9.49,7.62,9.39,7.68,9.3,7.73C9.2,7.79,9.11,7.84,9.01,7.89
		c-0.15,0.08-0.3,0.15-0.45,0.22C8.41,8.19,8.26,8.25,8.1,8.32c0-0.01,0.01-0.02,0.01-0.03C8.14,8.22,8.17,8.16,8.19,8.1
		c0.05-0.12,0.1-0.24,0.16-0.35C8.37,7.7,8.38,7.66,8.4,7.62c0.01-0.02,0.02-0.03,0.04-0.04c0.02-0.02,0.05-0.04,0.07-0.05
		C8.54,7.51,8.57,7.5,8.6,7.48c0.12-0.07,0.23-0.15,0.34-0.23C8.98,7.23,9.02,7.2,9.05,7.17c0.16-0.12,0.32-0.25,0.46-0.39
		c0.05-0.05,0.09-0.09,0.14-0.14c0.09-0.1,0.18-0.2,0.26-0.31c0.08-0.11,0.16-0.22,0.24-0.34c0.01-0.02,0.02-0.04,0.03-0.06
		c0-0.01,0.01-0.03,0.01-0.04c-0.04,0.04-0.07,0.07-0.11,0.1c-0.1,0.1-0.21,0.19-0.31,0.28C9.76,6.29,9.75,6.29,9.74,6.3
		C9.42,6.57,9.07,6.8,8.7,7C8.69,7,8.68,7.01,8.68,7.01c0.06-0.12,0.11-0.25,0.18-0.37c0.15-0.29,0.32-0.56,0.51-0.82
		c0.03-0.04,0.05-0.07,0.08-0.11c0.17-0.23,0.35-0.44,0.54-0.65c0.19-0.2,0.4-0.4,0.62-0.58c0.02-0.02,0.04-0.04,0.06-0.05
		c0.01-0.01,0.02-0.02,0.03-0.02c0.08-0.06,0.15-0.11,0.23-0.16c0.02-0.01,0.05-0.03,0.07-0.04c0.03-0.01,0.05-0.03,0.08-0.04
		c0.02-0.01,0.05-0.02,0.07-0.03c0.01,0,0.02-0.01,0.04-0.01c0.02-0.01,0.04-0.01,0.07-0.02c0.04-0.01,0.09-0.02,0.13-0.03
		c0.02,0,0.04-0.01,0.07-0.01c0,0,0.01,0,0.01,0c0.02,0,0.03,0,0.05,0c0.02,0,0.03,0,0.05,0c0.1,0,0.21,0.01,0.31,0.03
		c0.02,0,0.04,0.01,0.05,0.01c0.03,0.01,0.06,0.02,0.09,0.03c0.03,0.01,0.05,0.02,0.08,0.03c0.02,0.01,0.04,0.02,0.06,0.03
		c0.01,0.01,0.03,0.02,0.04,0.03c0.03,0.02,0.07,0.04,0.1,0.07c0.03,0.02,0.05,0.04,0.07,0.07c0.02,0.02,0.03,0.03,0.04,0.05
		c0.03,0.03,0.05,0.06,0.07,0.09c0.04,0.06,0.08,0.13,0.11,0.2c0.02,0.04,0.03,0.07,0.04,0.11c0.05,0.15,0.06,0.3,0.06,0.44
		c-0.01,0.18-0.05,0.35-0.1,0.51c-0.01,0.02-0.02,0.05-0.03,0.07c-0.01,0.02-0.01,0.04-0.02,0.05c-0.11,0.26-0.28,0.48-0.46,0.7
		c-0.02,0.02-0.04,0.04-0.06,0.07c-0.07,0.07-0.14,0.14-0.21,0.21c-0.07,0.06-0.13,0.13-0.2,0.19c-0.07,0.06-0.14,0.12-0.21,0.18
		c-0.05,0.04-0.09,0.08-0.14,0.11c-0.03,0.02-0.05,0.04-0.08,0.06c-0.06,0.04-0.12,0.09-0.18,0.13c-0.18,0.13-0.36,0.25-0.55,0.36
		C10.23,8.07,9.98,8.2,9.74,8.34C9.71,8.35,9.69,8.36,9.66,8.37z M14.94,3.15c-0.02,0.02-0.03,0.04-0.04,0.06
		c-0.06,0.08-0.11,0.15-0.16,0.23c-0.08,0.13-0.15,0.26-0.21,0.4c-0.01,0.03-0.02,0.06-0.03,0.08c-0.02,0.06-0.04,0.11-0.06,0.17
		c-0.02,0.06-0.03,0.12-0.04,0.18c-0.02,0.09-0.03,0.17-0.05,0.26c-0.01,0.04-0.01,0.07-0.01,0.11c-0.01,0.11-0.02,0.22-0.02,0.33
		c0,0,0,0,0,0c0,0.09-0.01,0.17-0.02,0.25c0,0.01,0,0.02,0,0.03v0c-0.05,0.48-0.21,0.94-0.46,1.34c-0.04,0.06-0.07,0.12-0.11,0.17
		c-0.01,0.01-0.01,0.02-0.02,0.02c-0.04,0.06-0.09,0.12-0.13,0.18c-0.02,0.03-0.05,0.06-0.08,0.09c-0.39,0.45-0.89,0.81-1.48,1
		c-0.05,0.02-0.1,0.04-0.15,0.05c-0.36,0.13-0.71,0.29-1.07,0.41c0,0-0.01,0-0.01,0c-0.02,0.01-0.04,0.01-0.07,0.02
		c-0.15,0.05-0.31,0.08-0.47,0.11c-0.06,0.01-0.12,0.02-0.19,0.03C9.99,8.68,9.92,8.68,9.86,8.69c0.12-0.07,0.23-0.13,0.35-0.2
		c0.03-0.02,0.06-0.03,0.09-0.05c0.01-0.01,0.03-0.01,0.04-0.02c0.11-0.07,0.22-0.13,0.33-0.2c0.11-0.07,0.22-0.14,0.32-0.21
		c0.06-0.04,0.12-0.09,0.19-0.13c0.04-0.03,0.08-0.06,0.11-0.08c0.07-0.06,0.15-0.11,0.22-0.17c0.37-0.3,0.7-0.63,1-1
		c0.02-0.03,0.04-0.05,0.06-0.08c0.02-0.02,0.03-0.04,0.05-0.07c0.12-0.16,0.21-0.32,0.29-0.5c0.03-0.06,0.05-0.12,0.07-0.18
		c0.03-0.09,0.05-0.18,0.07-0.28s0.03-0.19,0.03-0.29c0-0.17-0.02-0.34-0.07-0.49c-0.02-0.05-0.04-0.1-0.06-0.15
		c-0.01-0.03-0.03-0.07-0.05-0.1c-0.09-0.18-0.22-0.33-0.37-0.45C12.5,4,12.46,3.97,12.41,3.94c-0.06-0.04-0.12-0.07-0.19-0.09
		c-0.02-0.01-0.05-0.02-0.08-0.02c-0.06-0.02-0.13-0.03-0.19-0.04c-0.06-0.01-0.13-0.02-0.19-0.03c-0.05-0.01-0.11-0.01-0.16-0.02
		c0.07-0.06,0.14-0.12,0.21-0.17c0.01-0.01,0.02-0.01,0.03-0.02c0.05-0.03,0.11-0.06,0.16-0.09c0.19-0.1,0.41-0.17,0.63-0.22
		c0.05-0.01,0.1-0.02,0.15-0.03c0.02,0,0.05-0.01,0.07-0.01c0.04-0.01,0.09-0.01,0.13-0.02c0.13-0.02,0.26-0.02,0.39-0.02
		c0.03,0,0.05,0,0.08,0c0.05,0,0.09,0,0.14,0.01c0.03,0,0.05,0,0.08,0.01c0.02,0,0.05,0.01,0.07,0.01c0.02,0,0.05,0.01,0.07,0.01
		c0,0,0.01,0,0.01,0c0.07,0.01,0.14,0.02,0.21,0.02c0.03,0,0.06,0,0.09,0c0.13,0,0.26-0.02,0.39-0.04c0.03-0.01,0.05-0.01,0.08-0.02
		c0.03-0.01,0.06-0.02,0.09-0.03c0.02,0,0.03-0.01,0.05-0.01c0.04-0.01,0.08-0.03,0.12-0.04c0.07-0.03,0.14-0.06,0.22-0.09
		C15.03,3.04,14.98,3.09,14.94,3.15z M13.89,2.61c-0.01-0.11,0.05-0.19,0.15-0.22c0.01,0,0.01,0,0.02-0.01
		c0.02,0,0.04-0.01,0.06-0.01c0.02,0,0.04,0.01,0.06,0.01c0.01,0,0.02,0.01,0.03,0.01c0,0,0.01,0,0.01,0.01
		c0.01,0,0.01,0.01,0.02,0.01c0.02,0.01,0.03,0.03,0.04,0.05c0.02,0.03,0.03,0.07,0.03,0.12c0,0.04-0.01,0.08-0.02,0.11
		c0,0.01-0.01,0.01-0.01,0.02c-0.01,0.02-0.02,0.03-0.03,0.05c0,0-0.01,0.01-0.01,0.01c-0.01,0.01-0.02,0.01-0.03,0.02
		c-0.02,0.01-0.04,0.02-0.06,0.02c-0.01,0-0.02,0-0.04,0c-0.01,0-0.01,0-0.02,0c-0.01,0-0.01,0-0.02,0
		c-0.1-0.01-0.16-0.08-0.17-0.18C13.89,2.63,13.89,2.62,13.89,2.61z M15.32,2.1c0,0,0,0.01,0,0.01c0,0,0,0.01-0.01,0.01
		c0,0.01-0.01,0.01-0.01,0.02c-0.01,0.01-0.02,0.02-0.02,0.02c-0.01,0.01-0.03,0.02-0.05,0.03c0,0,0,0,0,0
		c-0.02,0.01-0.04,0.02-0.06,0.03c-0.02,0.01-0.04,0.01-0.06,0.01c-0.02,0-0.03,0-0.05,0c-0.02,0-0.03,0-0.05,0
		c-0.05,0-0.1-0.01-0.14-0.01c-0.05-0.01-0.1-0.02-0.14-0.03c-0.1-0.03-0.2-0.05-0.3-0.06c-0.04-0.01-0.08-0.01-0.12-0.01
		c-0.03,0-0.06-0.01-0.09-0.01c-0.04,0-0.09,0-0.13,0c0,0,0,0,0,0c-0.33,0-0.65,0.07-0.95,0.2c-0.06,0.03-0.12,0.05-0.18,0.09
		c-0.12,0.06-0.24,0.13-0.35,0.21c-0.09,0.06-0.18,0.13-0.27,0.19c-0.09,0.07-0.17,0.13-0.26,0.2c-0.05,0.04-0.1,0.08-0.15,0.12
		c-0.06,0.04-0.11,0.09-0.17,0.13c-0.05,0.04-0.09,0.07-0.14,0.11c0.02-0.04,0.03-0.08,0.05-0.11c0.15-0.39,0.3-0.79,0.54-1.12
		c0.01-0.02,0.03-0.04,0.04-0.05c0.03-0.04,0.06-0.07,0.09-0.11c0.01-0.01,0.03-0.03,0.04-0.04c0,0,0,0,0,0
		c0.03-0.03,0.05-0.05,0.08-0.08c0.01-0.01,0.03-0.03,0.04-0.04c0.04-0.03,0.08-0.06,0.12-0.09c0.1-0.07,0.22-0.13,0.35-0.19
		C12.98,1.52,13,1.51,13.02,1.5c0.04-0.02,0.08-0.03,0.12-0.04c0.12-0.04,0.24-0.07,0.36-0.1c0.08-0.02,0.16-0.03,0.24-0.03
		c0.06-0.01,0.12-0.01,0.18-0.01c0.03,0,0.05,0,0.08,0c0.14,0,0.28,0.02,0.42,0.06c0.18,0.05,0.37,0.12,0.55,0.23
		c0.04,0.03,0.09,0.06,0.13,0.09c0.02,0.01,0.03,0.02,0.05,0.04c0.03,0.03,0.07,0.05,0.09,0.09c0.01,0.02,0.03,0.03,0.03,0.05
		c0.03,0.06,0.06,0.13,0.06,0.2C15.33,2.07,15.33,2.09,15.32,2.1z"/>
	<path class="st1" d="M44.41,9.99c-0.05,0.09-0.12,0.18-0.19,0.26c-0.09,0.1-0.18,0.19-0.29,0.27c-0.05,0.04-0.1,0.07-0.14,0.1
		c-0.03,0.02-0.07,0.05-0.11,0.07c-0.03,0.02-0.06,0.04-0.09,0.06c0.02-0.02,0.05-0.04,0.07-0.06c0.08-0.07,0.16-0.13,0.24-0.2
		c0.08-0.07,0.15-0.14,0.22-0.21c0.12-0.13,0.21-0.27,0.28-0.42c0.07-0.16,0.1-0.32,0.09-0.49c-0.01-0.1-0.03-0.19-0.07-0.28
		c0,0,0-0.01-0.01-0.01c0-0.01-0.01-0.02-0.01-0.03c-0.02-0.03-0.03-0.06-0.05-0.09c-0.01-0.01-0.02-0.02-0.02-0.03
		c-0.05-0.07-0.11-0.12-0.18-0.17c-0.12-0.09-0.25-0.09-0.39-0.04c-0.02,0.01-0.04,0.02-0.06,0.03c-0.03,0.02-0.06,0.03-0.09,0.05
		c-0.02,0.02-0.05,0.03-0.07,0.05c-0.07,0.05-0.13,0.11-0.19,0.17c-0.06,0.06-0.11,0.12-0.16,0.19c-0.06,0.08-0.1,0.16-0.14,0.25
		C43,9.55,42.97,9.67,42.96,9.78c-0.01,0.12,0.01,0.24,0.04,0.36c0,0,0,0,0,0.01c-0.01-0.01-0.01-0.02-0.02-0.03
		c-0.01-0.01-0.01-0.02-0.02-0.03c-0.03-0.06-0.06-0.12-0.07-0.19c-0.02-0.11-0.02-0.22,0-0.33c0.01-0.06,0.03-0.12,0.04-0.18
		c-0.01,0.02-0.03,0.03-0.04,0.05c-0.02,0.02-0.03,0.04-0.05,0.06c-0.07,0.08-0.13,0.16-0.19,0.25c-0.1,0.14-0.18,0.28-0.25,0.43
		c-0.06,0.13-0.13,0.26-0.18,0.4c-0.02,0.05-0.04,0.11-0.06,0.16c-0.04,0.11-0.06,0.23-0.07,0.34c-0.01,0.11-0.02,0.21-0.01,0.32
		c0.01,0.15,0.04,0.3,0.1,0.43c0.01,0.02,0.02,0.04,0.03,0.06c-0.03-0.03-0.12-0.21-0.15-0.33c-0.03-0.12-0.05-0.24-0.04-0.36
		c0,0,0,0,0,0c-0.01,0.03-0.02,0.05-0.03,0.08c-0.02,0.07-0.05,0.14-0.07,0.21c-0.02,0.08-0.04,0.15-0.06,0.23
		c-0.04,0.15-0.06,0.3-0.06,0.45c0,0.13,0.02,0.26,0.07,0.38c0.03,0.08,0.08,0.15,0.13,0.21c0.05,0.06,0.11,0.11,0.18,0.15
		c0.09,0.05,0.18,0.09,0.27,0.14c0.01,0,0.01,0.01,0.02,0.01c-0.07,0-0.14-0.02-0.21-0.04c-0.11-0.04-0.21-0.1-0.29-0.18
		c0,0-0.01-0.01-0.01-0.01c-0.04-0.04-0.07-0.08-0.1-0.12c-0.06-0.09-0.1-0.19-0.13-0.3c-0.02-0.08-0.02-0.16-0.02-0.24
		c0-0.01,0-0.02,0-0.04c0,0,0,0,0,0.01c-0.04,0.13-0.06,0.26-0.07,0.39c-0.01,0.16,0.01,0.31,0.07,0.45
		c0.03,0.07,0.07,0.14,0.11,0.21c0.01,0.02,0.03,0.04,0.04,0.06c0.03,0.05,0.07,0.1,0.11,0.14c0,0,0,0,0,0
		c-0.02-0.01-0.08-0.05-0.13-0.11c-0.02-0.02-0.03-0.04-0.05-0.05c-0.05-0.06-0.09-0.13-0.13-0.2c-0.04-0.07-0.06-0.14-0.09-0.22
		c0,0.01,0,0.02,0,0.03c0,0.01,0,0.02,0,0.03c0.01,0.14,0.03,0.27,0.08,0.4c0.02,0.05,0.04,0.1,0.07,0.15
		c0.02,0.04,0.04,0.07,0.06,0.1c0.07,0.09,0.15,0.17,0.25,0.24c0.11,0.07,0.22,0.13,0.34,0.18c0.04,0.02,0.08,0.04,0.12,0.06
		c0,0,0.01,0,0.01,0.01c-0.02,0-0.04,0-0.07,0c-0.09,0-0.17-0.01-0.26-0.03c-0.12-0.03-0.22-0.09-0.32-0.16
		c-0.04-0.03-0.08-0.07-0.12-0.11c-0.02-0.02-0.04-0.05-0.06-0.07c-0.03-0.05-0.06-0.09-0.09-0.14c0,0,0-0.01-0.01-0.01
		c0,0.02,0.01,0.05,0.01,0.07c0.02,0.09,0.04,0.19,0.07,0.28c0.01,0.04,0.02,0.08,0.04,0.12c-0.01,0.11-0.02,0.22-0.02,0.32
		c0,0,0,0,0,0c0,0,0,0,0,0c0,0.17,0.02,0.32,0.06,0.46c0.08,0.28,0.24,0.5,0.5,0.66c0.07,0.04,0.15,0.08,0.24,0.12
		c0.04,0.02,0.09,0.03,0.13,0.05c0.15,0.05,0.33,0.09,0.53,0.11c0.08,0.01,0.14-0.06,0.14-0.13c-0.01-0.08-0.01-0.18,0-0.3
		c0.01-0.13,0.02-0.28,0.05-0.45c0.05-0.01,0.09-0.01,0.14-0.01c-0.01-0.01-0.01-0.01-0.02-0.01c-0.04-0.02-0.07-0.04-0.11-0.05
		c-0.08-0.02-0.17-0.02-0.26,0c-0.04,0.01-0.08,0.02-0.12,0.04c-0.01,0-0.02,0-0.02,0.01c0,0,0,0,0,0c0.03-0.02,0.05-0.03,0.08-0.05
		c0.11-0.05,0.22-0.08,0.33-0.11c0,0,0,0,0,0c0.06-0.01,0.12-0.02,0.17-0.03c0,0,0,0,0.01,0c-0.06-0.02-0.11-0.03-0.17-0.04
		c-0.1-0.01-0.2,0-0.31,0.02c0,0,0,0,0,0c0.02-0.01,0.04-0.01,0.05-0.02c0.08-0.02,0.15-0.05,0.23-0.08
		c0.02-0.01,0.03-0.01,0.04-0.02c0.06-0.03,0.11-0.06,0.16-0.09c0.07-0.05,0.14-0.11,0.19-0.18c0.04-0.06,0.07-0.12,0.1-0.18
		c-0.07,0.06-0.13,0.12-0.21,0.17c-0.06,0.04-0.13,0.07-0.21,0.09c0-0.01,0-0.01,0-0.02c0.04-0.02,0.07-0.04,0.11-0.07
		c0.08-0.05,0.15-0.11,0.21-0.18c0.06-0.07,0.1-0.14,0.14-0.22c0.01-0.02,0.01-0.04,0.02-0.06c-0.03,0.05-0.07,0.09-0.1,0.14
		c-0.06,0.07-0.13,0.14-0.2,0.19c-0.05,0.03-0.09,0.06-0.14,0.09c0,0,0,0,0,0c0-0.01,0.01-0.03,0.01-0.04
		c0.05-0.03,0.09-0.06,0.13-0.1c0.08-0.07,0.14-0.15,0.19-0.23c0.06-0.09,0.11-0.18,0.14-0.28c0.03-0.08,0.05-0.15,0.07-0.23
		c0.02-0.08,0.03-0.16,0.05-0.24c0,0,0,0,0-0.01c-0.01,0.02-0.02,0.04-0.03,0.07c-0.06,0.15-0.13,0.28-0.22,0.41
		c-0.07,0.1-0.16,0.2-0.26,0.27c0,0-0.01,0.01-0.01,0.01c-0.03,0.02-0.06,0.04-0.1,0.06c-0.08,0.05-0.17,0.09-0.26,0.12
		c-0.01,0-0.01,0-0.02,0c0.19-0.14,0.35-0.31,0.47-0.52c0,0,0-0.01,0.01-0.01c0.12-0.21,0.18-0.43,0.2-0.67
		c-0.01,0.03-0.03,0.06-0.04,0.09c-0.04,0.08-0.09,0.16-0.14,0.23c-0.07,0.1-0.16,0.19-0.26,0.27c0.02-0.03,0.04-0.05,0.06-0.08
		c0.06-0.08,0.11-0.17,0.16-0.26c0.04-0.09,0.08-0.18,0.12-0.28c0.02-0.06,0.04-0.13,0.07-0.19c0.03-0.09,0.06-0.18,0.09-0.27
		c0.04-0.13,0.09-0.27,0.16-0.39c0.02-0.04,0.04-0.08,0.07-0.13c0-0.01,0.01-0.01,0.01-0.02c-0.01,0.01-0.01,0.02-0.02,0.03
		c-0.07,0.1-0.14,0.21-0.21,0.31c-0.12,0.17-0.24,0.33-0.37,0.48c-0.06,0.07-0.13,0.14-0.19,0.22c0,0,0,0-0.01,0.01
		c0.02-0.03,0.04-0.06,0.06-0.09c0.08-0.12,0.17-0.24,0.25-0.37c0.1-0.16,0.21-0.32,0.31-0.48c0.08-0.13,0.16-0.27,0.24-0.41
		c0.07-0.13,0.13-0.27,0.18-0.4c0.03-0.08,0.05-0.17,0.07-0.26c0,0,0,0,0-0.01c-0.01,0.03-0.03,0.06-0.04,0.09
		c-0.04,0.08-0.08,0.16-0.12,0.24c-0.05,0.09-0.11,0.18-0.17,0.27c-0.07,0.1-0.15,0.2-0.24,0.29c-0.07,0.07-0.14,0.14-0.22,0.2
		c-0.05,0.04-0.11,0.08-0.16,0.11c-0.03,0.02-0.06,0.04-0.09,0.06c-0.05,0.03-0.1,0.05-0.15,0.08c0,0,0,0,0,0
		c0.02-0.02,0.03-0.04,0.05-0.06c0.08-0.1,0.17-0.18,0.27-0.27c0.13-0.12,0.25-0.24,0.35-0.38c0.08-0.11,0.16-0.23,0.22-0.35
		c0.06-0.12,0.12-0.24,0.16-0.36c0.02-0.05,0.04-0.1,0.05-0.15c0.02-0.06,0.04-0.13,0.06-0.19c0.03-0.11,0.05-0.22,0.06-0.33
		c0.01-0.04,0.01-0.09,0.01-0.13c0,0,0-0.01,0-0.01C44.44,9.93,44.42,9.96,44.41,9.99z M43.51,10.12c-0.02,0.06-0.04,0.12-0.06,0.18
		c-0.03,0.1-0.07,0.21-0.1,0.31c-0.03,0.1-0.06,0.21-0.09,0.32c-0.02,0.09-0.05,0.18-0.07,0.27c-0.03,0.11-0.05,0.23-0.08,0.34
		c-0.03,0.15-0.06,0.29-0.09,0.44c-0.03,0.16-0.06,0.33-0.08,0.49c-0.02,0.16-0.05,0.32-0.07,0.48c-0.02,0.14-0.03,0.28-0.05,0.43
		c-0.01,0.11-0.02,0.23-0.03,0.34c-0.02,0.17-0.03,0.35-0.05,0.52c-0.01,0.12-0.02,0.23-0.03,0.35c-0.02,0.19-0.04,0.38-0.06,0.57
		c-0.01,0.07-0.03,0.14-0.04,0.22c0,0,0,0,0,0.01c0-0.01,0-0.02,0-0.03c0-0.01,0-0.02,0-0.03c-0.01-0.16-0.02-0.32-0.01-0.48
		c0-0.13,0.01-0.26,0.01-0.39c0.01-0.17,0.02-0.34,0.03-0.51c0.01-0.13,0.02-0.26,0.03-0.38c0.01-0.14,0.03-0.29,0.04-0.43
		c0.02-0.17,0.04-0.34,0.06-0.51c0.02-0.15,0.05-0.31,0.07-0.46c0.02-0.13,0.05-0.26,0.07-0.38c0.01-0.07,0.03-0.14,0.05-0.22
		c0.02-0.09,0.05-0.18,0.07-0.28c0.02-0.08,0.04-0.16,0.07-0.24c0.02-0.07,0.04-0.14,0.06-0.21c0.02-0.08,0.05-0.15,0.08-0.23
		c0.03-0.09,0.06-0.18,0.1-0.27c0.04-0.09,0.07-0.19,0.11-0.28c0.05-0.12,0.1-0.23,0.16-0.35c0.05-0.1,0.1-0.19,0.16-0.29
		c0.01-0.01,0.01-0.02,0.02-0.03c0,0,0,0,0,0c-0.02,0.06-0.05,0.12-0.07,0.17c-0.04,0.1-0.07,0.19-0.11,0.29
		C43.57,9.94,43.54,10.03,43.51,10.12z"/>
</g>
</svg>
