<?xml version="1.0" encoding="utf-8"?>
<!-- Generator: Adobe Illustrator 27.2.0, SVG Export Plug-In . SVG Version: 6.00 Build 0)  -->
<svg version="1.1" id="Capa_1" xmlns="http://www.w3.org/2000/svg" xmlns:xlink="http://www.w3.org/1999/xlink" x="0px" y="0px"
	 viewBox="0 0 54.71 16" style="enable-background:new 0 0 54.71 16;" xml:space="preserve">
<style type="text/css">
	.st0{fill:#FFFFFF;}
</style>
<g>
	<g>
		<path class="st0" d="M14.01,2.71C14,2.7,13.98,2.68,13.97,2.67c-0.01,0-0.01-0.01-0.02-0.01c0,0-0.01,0-0.01-0.01
			c-0.01,0-0.02-0.01-0.02-0.01c-0.02-0.01-0.03-0.01-0.05-0.01c-0.02,0-0.04,0-0.06,0.01c-0.01,0-0.01,0-0.02,0.01
			c-0.05,0.01-0.09,0.04-0.11,0.08c-0.03,0.04-0.04,0.08-0.03,0.13c0,0.01,0,0.01,0,0.02c0.01,0.1,0.07,0.16,0.16,0.17
			c0.01,0,0.01,0,0.02,0c0.01,0,0.01,0,0.02,0c0.01,0,0.02,0,0.03,0c0.02,0,0.04-0.01,0.06-0.02c0.01,0,0.02-0.01,0.02-0.01
			c0,0,0.01-0.01,0.01-0.01c0.01-0.01,0.02-0.03,0.03-0.04c0-0.01,0.01-0.01,0.01-0.02c0.01-0.03,0.02-0.06,0.02-0.1
			C14.03,2.78,14.02,2.74,14.01,2.71z"/>
		<path class="st0" d="M8.46,8.91c0.1-0.04,0.19-0.08,0.28-0.12C8.83,8.74,8.92,8.7,9.02,8.65C9.04,8.64,9.07,8.62,9.1,8.61
			c0.06-0.03,0.12-0.06,0.18-0.09C9.32,8.5,9.36,8.48,9.4,8.46C9.44,8.44,9.48,8.42,9.52,8.4c0.03-0.01,0.05-0.03,0.08-0.04
			c0.02-0.01,0.05-0.02,0.07-0.04c0.24-0.13,0.47-0.26,0.7-0.4c0.18-0.11,0.35-0.23,0.52-0.35c0.06-0.04,0.11-0.08,0.17-0.13
			c0.03-0.02,0.05-0.04,0.08-0.06c0.05-0.04,0.09-0.07,0.13-0.11c0.07-0.06,0.13-0.11,0.2-0.17c0.06-0.06,0.13-0.12,0.19-0.18
			c0.07-0.07,0.13-0.14,0.2-0.21c0.02-0.02,0.04-0.04,0.06-0.06c0.18-0.2,0.34-0.42,0.44-0.67c0.01-0.02,0.01-0.03,0.02-0.05
			c0.01-0.02,0.02-0.04,0.02-0.06c0.05-0.15,0.09-0.32,0.1-0.49c0-0.07,0-0.14-0.01-0.21c-0.01-0.07-0.02-0.14-0.05-0.21
			c-0.01-0.03-0.02-0.07-0.04-0.1c-0.03-0.07-0.06-0.13-0.11-0.2c-0.02-0.03-0.04-0.06-0.07-0.09c-0.01-0.02-0.03-0.03-0.04-0.04
			c-0.02-0.02-0.05-0.04-0.07-0.06c-0.03-0.02-0.06-0.05-0.09-0.07C12.01,4.39,12,4.38,11.98,4.37c-0.02-0.01-0.04-0.02-0.06-0.03
			c-0.02-0.01-0.05-0.02-0.07-0.03c-0.03-0.01-0.06-0.02-0.09-0.03c-0.02,0-0.03-0.01-0.05-0.01c-0.1-0.02-0.2-0.03-0.3-0.03
			c-0.02,0-0.03,0-0.05,0c-0.02,0-0.03,0-0.05,0c0,0-0.01,0-0.01,0c-0.02,0-0.04,0-0.06,0.01c-0.04,0.01-0.08,0.02-0.13,0.03
			c-0.02,0.01-0.04,0.01-0.06,0.02c-0.01,0-0.02,0.01-0.04,0.01c-0.02,0.01-0.05,0.02-0.07,0.03c-0.03,0.01-0.05,0.02-0.08,0.04
			c-0.02,0.01-0.04,0.02-0.07,0.04c-0.08,0.04-0.15,0.09-0.22,0.15c-0.01,0.01-0.02,0.02-0.03,0.02c-0.02,0.02-0.04,0.03-0.06,0.05
			C10.07,4.98,9.7,5.38,9.38,5.81C9.35,5.84,9.33,5.88,9.3,5.91C9.12,6.16,8.96,6.43,8.82,6.7C8.79,6.76,8.76,6.82,8.73,6.88
			C8.7,6.93,8.67,6.99,8.65,7.05c0.01,0,0.02-0.01,0.02-0.01c0.36-0.19,0.69-0.41,0.99-0.66c0.01-0.01,0.02-0.02,0.03-0.02
			c0.1-0.09,0.2-0.18,0.3-0.27c0.03-0.03,0.07-0.07,0.1-0.1c0,0.02,0,0.03-0.01,0.04c-0.01,0.02-0.02,0.04-0.03,0.06
			C9.99,6.19,9.92,6.3,9.84,6.4c-0.08,0.1-0.16,0.2-0.25,0.3C9.54,6.74,9.49,6.79,9.45,6.83C9.31,6.97,9.16,7.09,9.01,7.21
			C8.97,7.23,8.94,7.26,8.9,7.28C8.8,7.36,8.69,7.43,8.58,7.5C8.51,7.54,8.42,7.58,8.39,7.64c-0.04,0.07-0.07,0.14-0.1,0.22
			c-0.03,0.07-0.07,0.15-0.1,0.23C8.16,8.15,8.13,8.21,8.11,8.28c0,0.01-0.01,0.02-0.01,0.03C8.4,8.18,8.69,8.05,8.97,7.9
			c0.09-0.05,0.19-0.1,0.28-0.15c0.09-0.05,0.18-0.1,0.27-0.16c0.11-0.07,0.22-0.14,0.33-0.21C9.88,7.35,9.92,7.33,9.95,7.3
			c0.22-0.15,0.43-0.3,0.63-0.46c0.07-0.05,0.14-0.11,0.21-0.16c0.02-0.02,0.04-0.03,0.06-0.05c0.02-0.01,0.03-0.03,0.05-0.04
			c0.07-0.05,0.13-0.11,0.2-0.16c0.1-0.09,0.2-0.17,0.3-0.26c0.07-0.06,0.13-0.12,0.2-0.18v0c-0.03,0.06-0.05,0.11-0.08,0.16
			c-0.03,0.05-0.06,0.1-0.08,0.15c-0.02,0.04-0.05,0.08-0.07,0.12c-0.03,0.04-0.06,0.08-0.09,0.12c-0.04,0.06-0.09,0.12-0.14,0.17
			c-0.05,0.06-0.1,0.11-0.15,0.16C10.87,7,10.74,7.12,10.62,7.23c-0.11,0.1-0.22,0.19-0.33,0.28c-0.13,0.1-0.25,0.19-0.39,0.28
			C9.81,7.85,9.73,7.9,9.64,7.95C9.37,8.12,9.08,8.27,8.78,8.4C8.71,8.43,8.64,8.46,8.56,8.49C8.46,8.53,8.37,8.57,8.27,8.6
			C8.22,8.62,8.18,8.63,8.14,8.65C8.13,8.66,8.12,8.67,8.11,8.67C8.06,8.7,8.02,8.73,7.98,8.77C7.96,8.79,7.95,8.81,7.93,8.83
			C7.92,8.85,7.91,8.87,7.91,8.89c0,0.01-0.01,0.02-0.01,0.03C7.88,8.97,7.87,9.02,7.86,9.09c0.14-0.03,0.28-0.06,0.41-0.11
			c0.01,0,0.03-0.01,0.04-0.01C8.36,8.95,8.41,8.93,8.46,8.91z"/>
		<path class="st0" d="M14.03,5.09C14.03,5.09,14.03,5.09,14.03,5.09c0-0.11,0.01-0.21,0.02-0.32c0-0.03,0.01-0.07,0.01-0.1
			c0.01-0.08,0.03-0.17,0.04-0.25c0.01-0.06,0.03-0.11,0.04-0.17s0.03-0.11,0.05-0.16c0.01-0.03,0.02-0.05,0.03-0.08
			c0.06-0.13,0.12-0.26,0.2-0.38c0.05-0.07,0.1-0.15,0.15-0.22c0.01-0.02,0.03-0.04,0.04-0.05c0.04-0.05,0.09-0.11,0.14-0.16
			c-0.07,0.03-0.14,0.06-0.21,0.09c-0.04,0.01-0.08,0.03-0.11,0.04c-0.01,0-0.03,0.01-0.04,0.01c-0.03,0.01-0.06,0.02-0.09,0.02
			c-0.02,0.01-0.05,0.01-0.07,0.02C14.12,3.4,14,3.41,13.87,3.41c-0.03,0-0.06,0-0.08,0c-0.07,0-0.14-0.01-0.2-0.02
			c0,0-0.01,0-0.01,0c-0.02,0-0.05-0.01-0.07-0.01c-0.02,0-0.05-0.01-0.07-0.01c-0.03,0-0.05,0-0.08-0.01
			c-0.04,0-0.09-0.01-0.13-0.01c-0.02,0-0.05,0-0.07,0c-0.12,0-0.25,0.01-0.37,0.02c-0.04,0-0.08,0.01-0.12,0.02
			c-0.02,0-0.05,0.01-0.07,0.01c-0.05,0.01-0.09,0.02-0.14,0.03c-0.21,0.05-0.42,0.12-0.6,0.21c-0.05,0.03-0.11,0.06-0.16,0.09
			c-0.01,0.01-0.02,0.01-0.03,0.02c-0.07,0.05-0.14,0.1-0.2,0.16c0.05,0.01,0.1,0.02,0.15,0.02c0.06,0.01,0.12,0.02,0.18,0.03
			c0.06,0.01,0.13,0.02,0.19,0.04c0.02,0.01,0.05,0.01,0.07,0.02c0.06,0.02,0.12,0.05,0.18,0.09c0.04,0.03,0.08,0.05,0.12,0.09
			c0.14,0.11,0.26,0.26,0.35,0.43c0.02,0.03,0.03,0.06,0.04,0.09c0.02,0.05,0.04,0.1,0.05,0.15c0.05,0.15,0.07,0.31,0.07,0.47
			c0,0.1-0.01,0.19-0.03,0.28c-0.02,0.09-0.04,0.18-0.07,0.26c-0.02,0.06-0.04,0.11-0.06,0.17c-0.07,0.17-0.17,0.33-0.28,0.48
			c-0.02,0.02-0.03,0.04-0.05,0.06c-0.02,0.02-0.04,0.05-0.06,0.07c-0.14,0.18-0.3,0.35-0.46,0.51c-0.16,0.16-0.33,0.31-0.5,0.45
			c-0.07,0.06-0.14,0.11-0.21,0.16c-0.04,0.03-0.07,0.05-0.11,0.08c-0.06,0.04-0.12,0.08-0.18,0.13c-0.1,0.07-0.2,0.14-0.31,0.2
			c-0.1,0.07-0.21,0.13-0.32,0.19c-0.01,0.01-0.02,0.01-0.04,0.02c-0.03,0.02-0.06,0.03-0.08,0.05C10,8.54,9.89,8.6,9.78,8.66
			C9.84,8.66,9.9,8.65,9.96,8.64c0.06-0.01,0.12-0.02,0.18-0.03c0.15-0.03,0.3-0.06,0.45-0.1c0.02-0.01,0.04-0.01,0.06-0.02
			c0,0,0.01,0,0.01,0c0.17-0.06,0.34-0.12,0.51-0.19c0.17-0.07,0.34-0.14,0.51-0.2c0.05-0.02,0.1-0.04,0.15-0.05
			c0.56-0.19,1.04-0.53,1.41-0.96C13.27,7.06,13.3,7.03,13.32,7c0.04-0.06,0.09-0.11,0.13-0.17c0.01-0.01,0.01-0.02,0.02-0.02
			c0.04-0.05,0.07-0.11,0.11-0.16c0.06-0.1,0.11-0.2,0.16-0.3c0.11-0.23,0.19-0.48,0.24-0.73c0.02-0.08,0.03-0.17,0.04-0.26
			c0,0,0,0,0,0c0-0.01,0-0.02,0-0.02C14.02,5.25,14.03,5.17,14.03,5.09z"/>
		<path class="st0" d="M11.59,3.45c0.05-0.04,0.11-0.09,0.16-0.13c0.05-0.04,0.09-0.07,0.14-0.11c0.08-0.06,0.17-0.13,0.25-0.19
			c0.08-0.06,0.17-0.12,0.25-0.18c0.11-0.08,0.22-0.15,0.34-0.2c0.06-0.03,0.11-0.06,0.17-0.08c0.29-0.12,0.59-0.19,0.91-0.19
			c0,0,0,0,0,0c0.04,0,0.09,0,0.13,0c0.03,0,0.06,0,0.08,0.01c0.04,0,0.08,0.01,0.11,0.01c0.09,0.01,0.19,0.03,0.28,0.06
			c0.09,0.02,0.18,0.04,0.27,0.04c0.02,0,0.03,0,0.05,0c0.02,0,0.03,0,0.05,0c0.02,0,0.04-0.01,0.06-0.01
			c0.02-0.01,0.04-0.01,0.06-0.02c0,0,0,0,0,0c0.02-0.01,0.03-0.02,0.04-0.03c0.01-0.01,0.02-0.01,0.02-0.02
			c0,0,0.01-0.01,0.01-0.02c0,0,0-0.01,0.01-0.01c0,0,0-0.01,0-0.01c0-0.01,0-0.03,0-0.04c0-0.02,0-0.03-0.01-0.05
			C15,2.23,14.99,2.2,14.97,2.17c-0.01-0.02-0.01-0.03-0.02-0.04c-0.01-0.02-0.02-0.03-0.03-0.05c-0.03-0.03-0.06-0.06-0.09-0.08
			c-0.02-0.01-0.03-0.02-0.05-0.04c-0.04-0.03-0.09-0.06-0.13-0.08c-0.09-0.05-0.17-0.09-0.26-0.13c-0.09-0.04-0.18-0.06-0.26-0.09
			c-0.13-0.03-0.27-0.05-0.4-0.05c-0.02,0-0.05,0-0.07,0c-0.06,0-0.11,0-0.17,0.01c-0.08,0.01-0.15,0.02-0.23,0.03
			c-0.11,0.02-0.23,0.05-0.34,0.09c-0.04,0.01-0.08,0.03-0.11,0.04c-0.02,0.01-0.04,0.01-0.06,0.02c-0.12,0.05-0.23,0.11-0.33,0.18
			c-0.04,0.03-0.08,0.06-0.11,0.09c-0.01,0.01-0.03,0.02-0.04,0.04c-0.03,0.02-0.05,0.05-0.08,0.08c0,0,0,0,0,0
			c-0.01,0.01-0.02,0.03-0.04,0.04c-0.03,0.03-0.06,0.07-0.09,0.1c-0.01,0.02-0.03,0.03-0.04,0.05c-0.23,0.32-0.37,0.7-0.52,1.07
			c-0.01,0.04-0.03,0.07-0.04,0.11C11.5,3.52,11.55,3.49,11.59,3.45z"/>
		<path class="st0" d="M17.61,2.33c-0.08-0.11-0.19-0.15-0.25-0.18l-0.02-0.01c-0.52-0.24-1.09-0.36-1.68-0.36
			c-0.04,0-0.09,0-0.13,0c-0.12-0.13-0.25-0.25-0.38-0.36c-0.05-0.05-0.09-0.1-0.11-0.13c-0.01-0.01-0.01-0.01-0.02-0.02
			c-0.13-0.15-0.22-0.3-0.31-0.45c-0.36-0.59-0.62-0.73-1.03-0.82C13.63,0.01,13.56,0,13.49,0c-1.16,0-3.11,1.9-4.17,3.03
			C7.7,4.76,6.79,5.78,5.46,7.66c-0.34,0.47-1.05,1.15-5.17,3.22c-0.2,0.1-0.31,0.31-0.29,0.53c0.02,0.22,0.18,0.4,0.4,0.45
			c0.16,0.04,0.34,0.06,0.48,0.06c0,0,0,0,0,0c0.68-0.01,1.37-0.08,2.04-0.2c-0.05,0.09-0.09,0.17-0.13,0.26
			c-0.05,0.09-0.1,0.2-0.17,0.34c-0.42,0.69-0.5,1.08-0.52,1.34c-0.05,0.68,0.19,1.15,0.86,1.66c0.43,0.32,0.88,0.5,1.25,0.5
			c0.08,0,0.15-0.01,0.2-0.02c0.52-0.1,0.61-0.63,0.68-1.01c0.02-0.13,0.05-0.25,0.08-0.36c0.15-0.49,0.36-0.84,0.54-1.14l0.05-0.08
			c0.62-1.01,0.71-1.08,1.49-1.2c0.12-0.01,1.2-0.14,1.94-0.18c0,0,0.01,0,0.01,0c0,0.02,0,0.03-0.01,0.04l-0.05,0.3
			c-0.22,1.41-0.38,2.43,1.03,3.35C10.59,15.82,11.1,16,11.51,16c0.19,0,0.36-0.04,0.5-0.11c0.72-0.38,0.65-1.23,0.62-1.59
			c-0.01-0.14-0.02-0.26-0.03-0.39c-0.03-0.37-0.06-0.68-0.05-1.11c0.05-1.69,0.32-3.21,0.89-4.91c0.01,0,0.01-0.01,0.02-0.01
			c0.76-0.7,1.18-1.54,1.24-2.52c0.04-0.57,0.11-1,0.35-1.39c0.21-0.34,0.46-0.53,0.78-0.59c0.3-0.06,0.61-0.1,0.91-0.15
			c0.19-0.03,0.39-0.06,0.58-0.09c0.15-0.02,0.43-0.14,0.43-0.42C17.75,2.59,17.71,2.46,17.61,2.33z M17.27,2.8
			c-0.5,0.08-1.01,0.15-1.5,0.24c-0.45,0.08-0.76,0.36-1,0.74c-0.3,0.48-0.37,1-0.4,1.55c-0.06,0.92-0.46,1.67-1.13,2.29
			c-0.03,0.02-0.05,0.05-0.08,0.07c-0.5,1.5-0.88,3.08-0.93,5.1c-0.02,0.6,0.04,1,0.08,1.54c0.04,0.5,0.02,1.02-0.44,1.26
			c-0.36,0.18-1,0-1.5-0.34c-1.32-0.86-1.08-1.74-0.84-3.31c0.02-0.18,0.08-0.46,0.08-0.46s-0.28,0.02-0.44,0.02
			c-0.74,0.04-1.82,0.16-1.98,0.18c-0.94,0.14-1.1,0.32-1.74,1.36c-0.2,0.34-0.44,0.72-0.62,1.3c-0.14,0.44-0.1,1.06-0.5,1.14
			c-0.24,0.06-0.7-0.06-1.18-0.42c-0.6-0.46-0.76-0.82-0.72-1.36c0.02-0.24,0.1-0.58,0.48-1.2c0.16-0.3,0.22-0.44,0.32-0.62
			c0.1-0.17,0.32-0.42,0-0.51c-0.08-0.02-0.16-0.02-0.23-0.01c-0.7,0.14-1.41,0.21-2.12,0.22c-0.09,0-0.24-0.02-0.39-0.05
			c-0.16-0.04-0.19-0.26-0.04-0.34c4.33-2.18,4.95-2.84,5.3-3.32c1.34-1.9,2.24-2.89,3.83-4.59c1.14-1.22,3.11-3.09,4.05-2.91
			c0.3,0.06,0.48,0.14,0.8,0.66c0.1,0.18,0.2,0.34,0.34,0.5c0.04,0.05,0.09,0.11,0.15,0.17c0.15,0.11,0.29,0.24,0.41,0.39
			c0.03,0.04,0.12,0.06,0.18,0.06c0.59-0.02,1.16,0.08,1.7,0.32c0.04,0.02,0.1,0.03,0.12,0.07c0.04,0.06,0.08,0.13,0.08,0.19
			C17.41,2.75,17.32,2.8,17.27,2.8z"/>
	</g>
	<g>
		<path class="st0" d="M19.23,8.39C19.07,8.21,18.84,8.08,18.55,8c-0.05-0.01-0.09-0.02-0.14-0.02c-0.24,0-0.45,0.16-0.51,0.39
			c-0.04,0.14-0.09,0.3-0.17,0.48c-0.11,0.27-0.26,0.58-0.43,0.92c-0.17,0.34-0.39,0.71-0.63,1.1c-0.15,0.25-0.31,0.5-0.48,0.77
			c0.02-0.38,0.05-0.73,0.07-1.05c0.03-0.45,0.03-0.85,0.01-1.19c-0.03-0.39-0.13-0.69-0.3-0.91c-0.13-0.18-0.4-0.4-0.89-0.4
			c-0.26,0-0.51,0.03-0.73,0.08c-0.16,0.04-0.32,0.09-0.49,0.15c-0.27,0.1-0.41,0.4-0.31,0.67c0.09,0.24,0.14,0.54,0.17,0.9
			c0.04,0.47,0.05,0.98,0.05,1.54l-0.01,1.71c0,0.56,0.01,1.08,0.05,1.56c0.01,0.19,0.13,0.36,0.3,0.44
			c0.02,0.01,0.05,0.02,0.08,0.03c0.12,0.04,0.27,0.06,0.45,0.06c0.17,0,0.35-0.02,0.58-0.06c0.16-0.03,0.28-0.06,0.38-0.08
			c0.13-0.04,0.25-0.12,0.32-0.24c0.23-0.39,0.49-0.79,0.76-1.19c0.29-0.42,0.59-0.84,0.9-1.25c0.3-0.41,0.59-0.8,0.86-1.17
			c0.27-0.37,0.49-0.72,0.68-1.04c0.2-0.34,0.32-0.63,0.36-0.88C19.55,8.86,19.39,8.56,19.23,8.39z M19.13,9.27
			c-0.03,0.18-0.12,0.4-0.26,0.66c-0.02,0.04-0.04,0.07-0.06,0.11c-0.04,0.08-0.09,0.15-0.14,0.23c-0.1,0.16-0.21,0.33-0.33,0.5
			c-0.06,0.09-0.12,0.18-0.19,0.27c-0.13,0.18-0.27,0.37-0.41,0.57c-0.14,0.19-0.29,0.4-0.44,0.6c-0.31,0.41-0.61,0.83-0.91,1.25
			c-0.19,0.27-0.36,0.54-0.53,0.81c-0.08,0.13-0.17,0.27-0.25,0.4c-0.01,0.01-0.02,0.02-0.03,0.04c-0.02,0.02-0.05,0.04-0.08,0.05
			c-0.01,0-0.02,0.01-0.03,0.01c-0.03,0.01-0.07,0.02-0.12,0.03c-0.06,0.01-0.13,0.03-0.2,0.04c-0.15,0.03-0.28,0.04-0.4,0.05
			c-0.04,0-0.08,0-0.11,0c-0.04,0-0.07,0-0.1,0c-0.1-0.01-0.18-0.02-0.24-0.04c-0.02-0.01-0.03-0.01-0.04-0.02
			c-0.01,0-0.01-0.01-0.02-0.01c-0.05-0.03-0.08-0.08-0.08-0.14c-0.01-0.12-0.02-0.24-0.02-0.36c-0.01-0.12-0.01-0.25-0.01-0.38
			c-0.01-0.26-0.01-0.52-0.01-0.8c0-0.29,0-0.57,0.01-0.85c0-0.28,0-0.57,0.01-0.85c0-0.14,0-0.28,0-0.42
			c-0.01-0.41-0.02-0.79-0.05-1.15c-0.02-0.2-0.04-0.38-0.07-0.54c-0.03-0.17-0.07-0.32-0.12-0.45c-0.01-0.02-0.01-0.05-0.01-0.07
			c0-0.05,0.02-0.09,0.06-0.13c0.02-0.02,0.04-0.03,0.06-0.04c0.16-0.06,0.31-0.11,0.45-0.14c0.19-0.05,0.41-0.07,0.65-0.07
			c0.28,0,0.48,0.09,0.61,0.26C15.75,8.78,15.8,8.88,15.84,9c0.02,0.06,0.04,0.13,0.05,0.2c0.01,0.07,0.02,0.15,0.03,0.23
			c0.03,0.32,0.02,0.7-0.01,1.14c-0.02,0.22-0.03,0.45-0.05,0.69c-0.02,0.24-0.03,0.5-0.05,0.77c0,0,0,0,0,0.01
			c-0.01,0.14-0.02,0.27-0.02,0.41c0,0.01,0,0.02,0,0.03c-0.01,0.14-0.01,0.28-0.01,0.42c0,0,0,0,0,0c0.13-0.2,0.26-0.39,0.38-0.59
			c0,0,0,0,0-0.01c0.21-0.33,0.4-0.64,0.6-0.94c0.06-0.1,0.13-0.21,0.19-0.31c0.06-0.1,0.12-0.2,0.18-0.29
			c0.17-0.29,0.33-0.56,0.46-0.83c0.13-0.26,0.25-0.5,0.35-0.73c0.03-0.07,0.06-0.15,0.09-0.22c0.08-0.2,0.15-0.38,0.19-0.53
			c0.02-0.07,0.08-0.13,0.15-0.13c0.02,0,0.05,0,0.07,0c0.06,0.02,0.11,0.03,0.16,0.05c0.1,0.04,0.19,0.09,0.26,0.14
			c0.04,0.03,0.07,0.06,0.1,0.09C19.13,8.78,19.18,9,19.13,9.27z"/>
		<polygon class="st0" points="15.78,12.9 15.78,12.9 15.78,12.9 		"/>
		<path class="st0" d="M16.17,12.3c0.21-0.33,0.4-0.64,0.6-0.94C16.58,11.67,16.38,11.98,16.17,12.3z"/>
		<path class="st0" d="M14.06,9.87c-0.02-0.2-0.04-0.38-0.07-0.54C14.02,9.49,14.04,9.67,14.06,9.87z"/>
		<path class="st0" d="M17.6,9.93c0.13-0.26,0.25-0.5,0.35-0.73C17.85,9.43,17.73,9.67,17.6,9.93z"/>
		<path class="st0" d="M14.14,14.68c0,0.06,0.04,0.11,0.08,0.14C14.18,14.79,14.15,14.74,14.14,14.68z"/>
		<path class="st0" d="M15.58,14.72c-0.02,0.02-0.05,0.04-0.08,0.05C15.54,14.76,15.56,14.74,15.58,14.72z"/>
		<path class="st0" d="M15.78,12.9c0-0.14,0.01-0.28,0.01-0.42C15.79,12.62,15.78,12.76,15.78,12.9L15.78,12.9z"/>
		<polygon class="st0" points="15.78,12.9 15.78,12.9 15.78,12.9 		"/>
	</g>
	<g>
		<path class="st0" d="M29.41,6.15c-0.14-0.22-0.38-0.35-0.64-0.35c-0.05,0-0.1,0.01-0.16,0.02c-0.38,0.08-0.78,0.15-1.17,0.2
			c-0.63,0.09-1.27,0.13-1.89,0.13c-0.43,0-0.86-0.02-1.28-0.06c-0.29-0.03-0.59-0.07-0.87-0.12c-0.05-0.01-0.09-0.01-0.14-0.01
			c-0.15,0-0.29,0.05-0.41,0.12C22.84,6.04,22.82,6,22.8,5.96c-0.12-0.18-0.28-0.3-0.49-0.37c-0.17-0.05-0.35-0.08-0.54-0.08
			c-0.17,0-0.34,0.01-0.52,0.04c-0.1,0.01-0.19,0.03-0.28,0.05c-0.22,0.04-0.42,0.19-0.51,0.4c-0.06,0.13-0.12,0.26-0.17,0.38
			c-0.09,0.2-0.15,0.41-0.19,0.63c-0.05,0.29-0.02,0.54,0.1,0.72c0.11,0.18,0.28,0.31,0.5,0.38c0.03,0.01,0.06,0.02,0.09,0.02
			c-0.07,0-0.15,0.01-0.24,0.02l-0.09,0.01c-0.35,0.04-0.62,0.33-0.64,0.69c0,0.04,0,0.08-0.01,0.12c-0.02,0.15-0.04,0.31-0.07,0.47
			c-0.07,0.41-0.17,0.81-0.3,1.21c-0.13,0.41-0.26,0.8-0.38,1.18c-0.13,0.39-0.22,0.76-0.28,1.1c-0.08,0.46-0.08,0.85,0.01,1.17
			c0.1,0.35,0.31,0.63,0.63,0.83c0.17,0.11,0.38,0.19,0.62,0.25c0.06,0.01,0.11,0.02,0.17,0.02c0.38,0,0.7-0.3,0.72-0.69
			c0.01-0.17,0.04-0.39,0.08-0.64c0.12-0.66,0.28-1.28,0.47-1.85c0.19-0.58,0.37-1.1,0.53-1.53c0.17-0.46,0.28-0.8,0.32-1.03
			c0.08-0.45,0-0.8-0.23-1.02c-0.13-0.13-0.31-0.21-0.55-0.26c0.07-0.01,0.14-0.02,0.21-0.03c0.1-0.02,0.19-0.03,0.28-0.05
			c0.14-0.03,0.27-0.11,0.37-0.21c0.03,0.12,0.07,0.23,0.13,0.32c0.1,0.15,0.29,0.32,0.65,0.32c0.27,0,0.61-0.01,0.99-0.02
			c0.03,0,0.07,0,0.11,0c-0.11,0.42-0.23,0.84-0.36,1.26c-0.15,0.49-0.29,0.96-0.43,1.41c-0.14,0.45-0.26,0.86-0.37,1.22
			c-0.11,0.38-0.19,0.68-0.23,0.92c-0.06,0.34-0.05,0.64,0.02,0.91c0.08,0.3,0.28,0.56,0.6,0.77c0.18,0.12,0.41,0.21,0.7,0.3
			c0.07,0.02,0.15,0.03,0.22,0.03c0.4,0,0.73-0.31,0.76-0.71c0.01-0.17,0.04-0.39,0.08-0.63c0.06-0.35,0.16-0.76,0.28-1.22
			c0.13-0.47,0.27-0.97,0.43-1.48l0.47-1.51c0.15-0.49,0.29-0.94,0.4-1.34c0.01-0.03,0.02-0.06,0.02-0.09
			c0.31-0.03,0.58-0.06,0.82-0.08c0.36-0.05,0.67-0.16,0.93-0.33c0.26-0.17,0.48-0.41,0.67-0.73c0.05-0.09,0.11-0.19,0.15-0.29
			C29.57,6.65,29.55,6.38,29.41,6.15z M21.86,8.67c0.14,0.14,0.19,0.38,0.13,0.72c-0.04,0.21-0.14,0.53-0.3,0.97
			c-0.16,0.44-0.34,0.95-0.54,1.54c-0.19,0.59-0.35,1.22-0.48,1.9c-0.05,0.27-0.08,0.49-0.09,0.68c0,0,0,0,0,0.01
			c-0.01,0.24-0.24,0.41-0.47,0.35c-0.21-0.05-0.38-0.12-0.52-0.2c-0.24-0.15-0.4-0.36-0.48-0.63c-0.07-0.27-0.08-0.61,0-1.02
			c0.06-0.32,0.15-0.67,0.27-1.05c0.12-0.38,0.25-0.77,0.38-1.18c0.13-0.41,0.23-0.83,0.31-1.25c0.03-0.17,0.05-0.33,0.07-0.49
			c0.01-0.05,0.01-0.1,0.01-0.14c0.01-0.19,0.15-0.34,0.33-0.36c0.03,0,0.06-0.01,0.09-0.01c0.16-0.02,0.29-0.03,0.4-0.03
			C21.42,8.46,21.71,8.53,21.86,8.67z M22.56,6.64C22.53,6.82,22.48,7,22.4,7.18c-0.05,0.12-0.11,0.25-0.17,0.37
			c-0.05,0.11-0.15,0.18-0.26,0.21C21.88,7.77,21.8,7.79,21.7,7.8c-0.16,0.03-0.32,0.04-0.48,0.04c-0.15,0-0.3-0.02-0.44-0.06
			c-0.14-0.04-0.24-0.12-0.31-0.23c-0.07-0.11-0.09-0.27-0.05-0.48c0.03-0.19,0.09-0.38,0.17-0.55c0.05-0.12,0.11-0.24,0.17-0.37
			c0.05-0.11,0.15-0.19,0.27-0.21c0.08-0.02,0.17-0.03,0.26-0.04c0.17-0.02,0.32-0.03,0.47-0.03c0.16,0,0.3,0.02,0.44,0.06
			c0.13,0.04,0.24,0.12,0.31,0.23C22.58,6.27,22.6,6.43,22.56,6.64z M29.19,6.62c-0.01,0.04-0.02,0.08-0.04,0.12
			C29.11,6.84,29.06,6.92,29.01,7c-0.14,0.24-0.3,0.42-0.48,0.56c-0.03,0.02-0.05,0.04-0.08,0.06c-0.05,0.04-0.11,0.07-0.17,0.1
			c-0.06,0.03-0.12,0.05-0.19,0.08c-0.13,0.05-0.27,0.08-0.43,0.1c-0.29,0.04-0.63,0.07-1.03,0.1c0,0,0,0,0,0
			c-0.01,0.03-0.02,0.07-0.03,0.1c-0.02,0.07-0.04,0.14-0.06,0.21c-0.03,0.1-0.06,0.2-0.09,0.31c-0.09,0.32-0.2,0.66-0.31,1.03
			c-0.08,0.25-0.15,0.5-0.23,0.75c-0.08,0.25-0.16,0.51-0.24,0.77c-0.08,0.26-0.16,0.51-0.23,0.76c-0.07,0.25-0.14,0.49-0.21,0.73
			c-0.1,0.36-0.18,0.68-0.24,0.97c-0.02,0.1-0.04,0.19-0.05,0.28c-0.01,0.06-0.02,0.13-0.03,0.18c-0.01,0.06-0.02,0.12-0.02,0.17
			c-0.01,0.11-0.02,0.21-0.03,0.31c0,0.07-0.02,0.13-0.06,0.18c-0.02,0.03-0.03,0.05-0.05,0.07c-0.04,0.04-0.09,0.08-0.15,0.1
			c-0.06,0.02-0.12,0.03-0.18,0.03c-0.03,0-0.06-0.01-0.1-0.02c-0.13-0.04-0.24-0.08-0.35-0.12c-0.05-0.02-0.1-0.04-0.14-0.07
			c-0.04-0.02-0.09-0.05-0.12-0.07c-0.06-0.04-0.12-0.08-0.17-0.12c-0.05-0.04-0.09-0.09-0.13-0.14c-0.08-0.09-0.13-0.2-0.16-0.31
			c-0.01-0.05-0.03-0.11-0.03-0.17s-0.01-0.12-0.01-0.18c0-0.13,0.01-0.26,0.04-0.41c0.04-0.22,0.11-0.52,0.22-0.88
			c0.03-0.09,0.05-0.18,0.08-0.28c0.06-0.19,0.12-0.39,0.18-0.61c0.03-0.11,0.07-0.22,0.1-0.33c0.03-0.11,0.07-0.23,0.1-0.34
			c0.07-0.23,0.14-0.46,0.21-0.71c0.04-0.12,0.07-0.24,0.11-0.36c0.07-0.25,0.15-0.49,0.21-0.74c0.07-0.25,0.14-0.49,0.2-0.73
			c0.01-0.03,0.01-0.05,0.02-0.08c0.02-0.06,0.03-0.12,0.04-0.17c-0.19,0.01-0.38,0.02-0.57,0.03c-0.39,0.01-0.71,0.02-0.98,0.02
			c-0.04,0-0.08,0-0.12-0.01c-0.11-0.02-0.19-0.07-0.24-0.16c-0.02-0.03-0.03-0.06-0.05-0.09c-0.03-0.06-0.05-0.13-0.06-0.21
			c0-0.04-0.01-0.08-0.01-0.12c0-0.09,0-0.17,0.01-0.26c0.01-0.09,0.02-0.17,0.03-0.26c0.02-0.11,0.04-0.21,0.07-0.31
			c0.01-0.05,0.03-0.1,0.04-0.15c0,0,0,0,0,0c0.02-0.05,0.04-0.1,0.07-0.14c0.02-0.02,0.03-0.04,0.05-0.05
			c0.08-0.07,0.17-0.1,0.28-0.1c0.03,0,0.05,0,0.08,0.01c0.29,0.06,0.6,0.1,0.9,0.13c0.22,0.02,0.43,0.03,0.65,0.04
			c0.22,0.01,0.44,0.01,0.66,0.01c0.16,0,0.32,0,0.48-0.01c0.16-0.01,0.32-0.01,0.48-0.03c0.32-0.02,0.65-0.06,0.97-0.1
			c0.4-0.06,0.8-0.12,1.19-0.2c0.04-0.01,0.08-0.01,0.12-0.01c0.08,0.01,0.15,0.04,0.21,0.08c0.03,0.02,0.06,0.05,0.08,0.08
			C29.17,6.39,29.2,6.51,29.19,6.62z"/>
		<path class="st0" d="M22.76,7.06c0.02-0.11,0.04-0.21,0.07-0.31C22.8,6.85,22.78,6.95,22.76,7.06z"/>
		<path class="st0" d="M22.83,8.01c0.06,0.08,0.14,0.14,0.24,0.16C22.97,8.14,22.89,8.09,22.83,8.01z"/>
		<path class="st0" d="M25.24,12.65c-0.1,0.36-0.18,0.68-0.24,0.97C25.06,13.33,25.14,13.01,25.24,12.65z"/>
		<path class="st0" d="M26.45,8.62c-0.09,0.32-0.2,0.66-0.31,1.03C26.25,9.27,26.36,8.93,26.45,8.62z"/>
		<path class="st0" d="M23.41,14.42c-0.08-0.09-0.13-0.2-0.16-0.31C23.29,14.22,23.34,14.32,23.41,14.42z"/>
	</g>
	<g>
		<path class="st0" d="M34.44,8.73c-0.22-0.36-0.62-0.55-1.2-0.55c-0.37,0-0.75,0.1-1.12,0.31c-0.26,0.14-0.52,0.34-0.76,0.58
			c0.14-0.47,0.26-0.9,0.36-1.29c0.11-0.43,0.19-0.79,0.24-1.07c0.08-0.45,0.09-0.82,0.02-1.13c-0.08-0.36-0.28-0.64-0.6-0.84
			c-0.28-0.17-0.66-0.27-1.18-0.31c-0.01,0-0.02,0-0.03,0c-0.11,0-0.21,0.05-0.28,0.13c-0.07,0.08-0.1,0.19-0.08,0.3
			c0.01,0.05,0.02,0.16,0,0.37c-0.02,0.21-0.05,0.46-0.1,0.74c-0.11,0.62-0.25,1.25-0.41,1.89c-0.16,0.64-0.34,1.26-0.52,1.85
			c-0.18,0.6-0.36,1.16-0.53,1.69c-0.17,0.54-0.31,0.99-0.44,1.39c-0.13,0.42-0.21,0.74-0.25,1c-0.1,0.56,0.1,0.87,0.29,1.02
			c0.24,0.2,0.61,0.3,1.12,0.3c0.12,0,0.25-0.01,0.4-0.02c0.13-0.01,0.28-0.04,0.43-0.06c0.17-0.03,0.3-0.18,0.31-0.36
			c0-0.11,0.01-0.24,0.02-0.37c0.02-0.15,0.04-0.31,0.07-0.48c0.1-0.54,0.23-1.06,0.4-1.53c0.17-0.48,0.36-0.9,0.57-1.26
			c0.2-0.35,0.4-0.62,0.59-0.81c0.12-0.12,0.2-0.17,0.25-0.2c0,0.06,0,0.17-0.03,0.34c-0.04,0.23-0.11,0.49-0.2,0.76
			c-0.09,0.28-0.19,0.57-0.3,0.85c-0.11,0.29-0.21,0.57-0.3,0.84c-0.1,0.28-0.16,0.54-0.2,0.77c-0.1,0.59,0.02,1.03,0.37,1.31
			c0.31,0.25,0.8,0.37,1.5,0.37c0.21,0,0.37-0.01,0.49-0.03c0.07-0.01,0.14-0.02,0.22-0.04c0.15-0.02,0.27-0.13,0.31-0.29
			c0.03-0.15-0.03-0.3-0.15-0.39c-0.11-0.07-0.18-0.15-0.21-0.23c-0.02-0.05-0.05-0.19,0.01-0.54c0.06-0.36,0.17-0.75,0.31-1.15
			l0.44-1.26c0.15-0.44,0.26-0.85,0.33-1.23C34.69,9.51,34.64,9.07,34.44,8.73z M34.24,10.04c-0.06,0.37-0.17,0.76-0.32,1.18
			c-0.15,0.42-0.29,0.84-0.44,1.26c-0.15,0.42-0.25,0.82-0.32,1.2c-0.06,0.32-0.05,0.57,0.01,0.73c0.06,0.14,0.17,0.27,0.33,0.38
			c0.02,0.01,0.01,0.05-0.01,0.05c-0.08,0.01-0.15,0.02-0.23,0.04c-0.1,0.02-0.24,0.03-0.43,0.03c-0.62,0-1.05-0.1-1.29-0.29
			c-0.24-0.19-0.32-0.52-0.24-0.98c0.04-0.22,0.1-0.46,0.19-0.72c0.09-0.27,0.19-0.54,0.3-0.83c0.11-0.29,0.21-0.57,0.3-0.86
			c0.09-0.29,0.16-0.56,0.21-0.81c0.09-0.51,0.01-0.76-0.24-0.76c-0.17,0-0.35,0.11-0.56,0.32c-0.21,0.21-0.42,0.51-0.64,0.88
			c-0.22,0.38-0.41,0.82-0.59,1.31c-0.18,0.5-0.32,1.03-0.41,1.59c-0.03,0.18-0.06,0.35-0.07,0.5c-0.02,0.15-0.02,0.28-0.03,0.4
			c0,0.01-0.01,0.03-0.02,0.03c-0.15,0.03-0.28,0.05-0.41,0.06c-0.13,0.01-0.25,0.02-0.36,0.02c-0.43,0-0.73-0.07-0.9-0.22
			c-0.17-0.14-0.23-0.38-0.17-0.7c0.04-0.24,0.12-0.56,0.24-0.96c0.12-0.4,0.27-0.87,0.43-1.39c0.17-0.52,0.34-1.09,0.53-1.69
			c0.19-0.6,0.36-1.23,0.52-1.87c0.16-0.64,0.3-1.28,0.41-1.91c0.05-0.29,0.09-0.55,0.1-0.77c0.02-0.2,0.01-0.35,0-0.45
			c0-0.02,0.01-0.03,0.03-0.03c0.46,0.04,0.8,0.13,1.03,0.27c0.24,0.14,0.38,0.35,0.44,0.61c0.06,0.27,0.05,0.6-0.02,1
			c-0.05,0.27-0.13,0.62-0.24,1.04c-0.11,0.42-0.24,0.89-0.4,1.42c-0.15,0.51-0.31,1.05-0.49,1.62c-0.01,0.02,0,0.03,0.02,0.04
			c0.01,0,0.02,0,0.03-0.01c0.25-0.47,0.53-0.86,0.82-1.19c0.3-0.33,0.6-0.59,0.92-0.76c0.32-0.18,0.64-0.26,0.95-0.26
			c0.45,0,0.75,0.13,0.91,0.38C34.3,9.17,34.33,9.54,34.24,10.04z"/>
	</g>
	<g>
		<path class="st0" d="M43.73,5.96c-0.12-0.18-0.28-0.3-0.49-0.37c-0.17-0.05-0.35-0.08-0.54-0.08c-0.17,0-0.34,0.01-0.52,0.04
			c-0.1,0.01-0.19,0.03-0.28,0.05c-0.22,0.04-0.42,0.19-0.51,0.4c-0.06,0.13-0.12,0.26-0.17,0.38c-0.09,0.2-0.15,0.41-0.19,0.63
			C40.97,7.3,41,7.54,41.12,7.73c0.11,0.18,0.28,0.31,0.5,0.38c0.01,0,0.03,0.01,0.04,0.01c-0.01,0-0.01,0.01-0.02,0.01l-0.02,0.01
			c-0.02,0.01-0.04,0.03-0.06,0.04c-0.08,0.06-0.14,0.12-0.21,0.18c0,0,0,0,0,0c-0.07,0.07-0.13,0.15-0.19,0.22
			c-0.01,0.02-0.03,0.04-0.04,0.06C41.07,8.67,41,8.71,40.96,8.76L40.93,8.8l-0.05,0.06c0,0,0,0,0,0c-0.08,0.09-0.14,0.18-0.2,0.26
			c0,0,0,0.01-0.01,0.01c-0.01-0.03-0.01-0.06-0.02-0.09c-0.06-0.25-0.19-0.46-0.39-0.62c-0.2-0.16-0.44-0.25-0.73-0.25
			c-0.27,0-0.56,0.08-0.85,0.25c-0.28,0.16-0.56,0.42-0.86,0.78c-0.05,0.06-0.09,0.12-0.14,0.18c-0.04-0.26-0.14-0.5-0.29-0.71
			c-0.28-0.39-0.75-0.63-1.4-0.71c-0.01,0-0.04,0-0.05,0c-0.11,0-0.21,0.04-0.28,0.12c-0.07,0.08-0.11,0.18-0.11,0.29
			c0.01,0.21,0.01,0.43,0,0.67c-0.01,0.26-0.05,0.52-0.09,0.79c-0.06,0.35-0.15,0.72-0.26,1.11c-0.12,0.4-0.24,0.78-0.35,1.14
			c-0.12,0.37-0.23,0.69-0.33,0.98c-0.1,0.31-0.17,0.55-0.2,0.72c-0.1,0.55,0.1,0.85,0.28,1.01c0.23,0.21,0.6,0.31,1.11,0.31
			c0.14,0,0.28-0.01,0.43-0.02c0.13-0.01,0.27-0.03,0.41-0.06c0.18-0.03,0.31-0.18,0.32-0.36c0.01-0.11,0.02-0.23,0.03-0.36
			c0.01-0.13,0.03-0.29,0.06-0.47c0.09-0.51,0.21-1,0.37-1.46c0.15-0.46,0.32-0.87,0.5-1.22c0.12-0.25,0.25-0.46,0.36-0.63
			c-0.02,0.04-0.04,0.08-0.06,0.12c-0.08,0.16-0.16,0.3-0.25,0.42c-0.07,0.1-0.09,0.23-0.06,0.34c0.04,0.12,0.12,0.21,0.24,0.25
			c0.07,0.02,0.14,0.04,0.21,0.05c0.09,0.01,0.19,0.02,0.3,0.02c0.37,0,0.71-0.09,1.01-0.28c0.09-0.05,0.17-0.12,0.25-0.18
			c-0.01,0.03-0.01,0.07-0.02,0.1c-0.03,0.03-0.05,0.06-0.07,0.11c-0.01,0.01-0.01,0.03-0.01,0.04c-0.05,0.17-0.07,0.31-0.08,0.45
			c0,0.04,0,0.08,0,0.12c-0.03,0.05-0.05,0.11-0.05,0.17l0,0.03c0,0.02,0,0.04,0,0.06c0.01,0.15,0.04,0.27,0.07,0.39
			c-0.04,0.07-0.06,0.16-0.05,0.24l0,0.02c0,0.02,0.01,0.04,0.01,0.06l0.02,0.07c0.02,0.07,0.03,0.14,0.05,0.21
			c0.01,0.02,0.01,0.05,0.02,0.07c-0.01,0.06-0.01,0.12-0.01,0.18c-0.01,0.05-0.01,0.1,0,0.16c0.01,0.17,0.03,0.32,0.06,0.46
			c0.1,0.35,0.31,0.63,0.63,0.83c0.08,0.05,0.18,0.1,0.28,0.14c0,0,0,0,0,0c0,0,0,0,0,0c0.05,0.02,0.1,0.04,0.15,0.05c0,0,0,0,0,0
			c0.17,0.05,0.36,0.09,0.56,0.12c0.01,0,0.04,0,0.06,0c0.13,0,0.25-0.05,0.34-0.15c0.09-0.09,0.13-0.22,0.12-0.35
			c0-0.06,0-0.14,0-0.24c0.01-0.1,0.02-0.21,0.04-0.34c0.12-0.05,0.21-0.17,0.21-0.3c0-0.02,0-0.04-0.01-0.06
			c0.05-0.04,0.09-0.09,0.13-0.14c0.05-0.07,0.1-0.15,0.14-0.24c0.03-0.06,0.03-0.13,0.02-0.2c0.01-0.01,0.01-0.03,0.02-0.04
			c0.01-0.02,0.01-0.04,0.02-0.07c0.02-0.06,0.02-0.13,0.01-0.18c0-0.01,0.01-0.02,0.01-0.03c0.03-0.09,0.06-0.17,0.08-0.25
			c0.01-0.06,0.03-0.12,0.04-0.18l0.01-0.07c0.02-0.1-0.01-0.2-0.07-0.28c-0.04-0.05-0.09-0.09-0.15-0.11
			c-0.01-0.03-0.02-0.06-0.03-0.08l0.06-0.2c0.04-0.13,0.09-0.24,0.13-0.33l0.06-0.12c0.02-0.04,0.04-0.11,0.05-0.16
			c0-0.04,0-0.07-0.01-0.11c0.01-0.01,0.01-0.02,0.02-0.03c0.07-0.13,0.13-0.27,0.19-0.44c0.03-0.1,0.06-0.2,0.08-0.29
			c0.01-0.03,0.01-0.08,0.01-0.11c-0.01-0.07-0.03-0.13-0.07-0.18c0.01-0.03,0.02-0.06,0.03-0.1c0.02-0.1,0.05-0.22,0.07-0.35
			c0-0.03,0.01-0.07,0.01-0.1l0-0.04c0-0.02,0-0.04,0-0.06c0-0.04-0.01-0.07-0.02-0.11c0.03-0.13,0.05-0.27,0.04-0.4
			C43.03,8.8,43,8.67,42.94,8.54c0,0,0,0,0,0l-0.01-0.03c-0.01-0.01-0.01-0.03-0.02-0.04l-0.05-0.09c-0.01-0.02-0.02-0.03-0.03-0.04
			c0,0-0.02-0.02-0.02-0.02c-0.05-0.06-0.1-0.12-0.17-0.17c0.02,0,0.03,0,0.05-0.01c0.1-0.02,0.19-0.03,0.28-0.05
			c0.22-0.05,0.4-0.19,0.5-0.4c0.06-0.13,0.12-0.25,0.17-0.38c0.09-0.2,0.15-0.41,0.19-0.61C43.89,6.4,43.86,6.15,43.73,5.96z
			 M39.39,11.16c-0.25,0.15-0.52,0.23-0.83,0.23c-0.09,0-0.18-0.01-0.25-0.02c-0.05-0.01-0.1-0.02-0.14-0.04
			c-0.03-0.01-0.04-0.05-0.02-0.07c0.1-0.13,0.19-0.29,0.28-0.46c0.1-0.2,0.16-0.38,0.2-0.56c0,0,0,0,0,0
			c0.04-0.14,0.05-0.24,0.02-0.31c-0.02-0.07-0.07-0.11-0.15-0.11c-0.12,0-0.27,0.11-0.45,0.32c-0.18,0.21-0.36,0.5-0.54,0.87
			c-0.18,0.37-0.35,0.79-0.51,1.27c-0.16,0.48-0.29,0.98-0.38,1.51c-0.03,0.19-0.06,0.35-0.07,0.5c-0.01,0.13-0.02,0.26-0.03,0.37
			c0,0.02-0.02,0.04-0.04,0.04c-0.14,0.03-0.26,0.04-0.38,0.06c-0.13,0.01-0.26,0.02-0.39,0.02c-0.42,0-0.72-0.07-0.89-0.22
			c-0.17-0.15-0.22-0.38-0.17-0.69c0.03-0.16,0.09-0.38,0.19-0.67c0.1-0.29,0.21-0.62,0.33-0.99c0.12-0.37,0.24-0.75,0.36-1.15
			c0.12-0.4,0.21-0.78,0.27-1.15c0.05-0.28,0.08-0.56,0.1-0.83c0.01-0.25,0.02-0.49,0-0.71c0-0.03,0.02-0.05,0.05-0.05
			c0.55,0.07,0.94,0.26,1.16,0.57c0.23,0.32,0.31,0.74,0.21,1.26c-0.01,0.08-0.03,0.17-0.06,0.28c-0.02,0.09-0.05,0.19-0.08,0.29
			c-0.01,0.03,0.01,0.05,0.03,0.06c0.02,0.01,0.04,0,0.05-0.02c0.28-0.56,0.55-1,0.81-1.32c0.27-0.33,0.52-0.56,0.76-0.7
			c0.24-0.14,0.47-0.2,0.68-0.2c0.21,0,0.38,0.06,0.51,0.17c0.13,0.11,0.23,0.26,0.27,0.44c0.05,0.18,0.05,0.39,0.01,0.62
			c-0.05,0.29-0.16,0.57-0.32,0.81C39.84,10.81,39.64,11.01,39.39,11.16z M42.69,8.95c0.01,0.16-0.02,0.32-0.09,0.47
			c-0.06,0.15-0.15,0.28-0.26,0.41c-0.07,0.07-0.14,0.14-0.21,0.2c-0.08,0.06-0.15,0.13-0.23,0.19c-0.02,0.02-0.04,0.04-0.06,0.05
			c0.03-0.02,0.06-0.04,0.09-0.05c0.03-0.02,0.07-0.04,0.1-0.07c0.05-0.03,0.09-0.07,0.14-0.1c0.1-0.08,0.19-0.16,0.28-0.26
			c0.07-0.08,0.13-0.16,0.18-0.25c0.02-0.03,0.03-0.05,0.05-0.09c0,0.01,0,0.01,0,0.01c0,0.04-0.01,0.08-0.01,0.12
			c-0.01,0.1-0.03,0.21-0.06,0.31c-0.02,0.06-0.03,0.12-0.05,0.19c-0.02,0.05-0.03,0.1-0.05,0.15c-0.04,0.12-0.1,0.23-0.16,0.34
			c-0.06,0.12-0.13,0.23-0.21,0.34c-0.1,0.13-0.21,0.25-0.34,0.36c-0.09,0.08-0.18,0.16-0.26,0.25c-0.02,0.02-0.03,0.04-0.05,0.06
			c0,0,0,0,0,0c0.05-0.03,0.1-0.05,0.14-0.08c0.03-0.02,0.06-0.04,0.09-0.06c0.05-0.04,0.1-0.07,0.15-0.11
			c0.08-0.06,0.15-0.12,0.21-0.19c0.08-0.09,0.16-0.18,0.23-0.28c0.06-0.08,0.11-0.17,0.16-0.26c0.04-0.08,0.08-0.15,0.11-0.23
			c0.01-0.03,0.02-0.06,0.04-0.09c0,0,0,0.01,0,0.01c-0.02,0.08-0.04,0.17-0.07,0.25c-0.05,0.13-0.1,0.26-0.17,0.39
			c-0.07,0.13-0.15,0.26-0.23,0.39c-0.09,0.15-0.19,0.31-0.29,0.46c-0.08,0.12-0.16,0.23-0.24,0.35c-0.02,0.03-0.04,0.06-0.05,0.08
			c0,0,0.01,0,0.01-0.01c0.06-0.07,0.12-0.14,0.18-0.21c0.13-0.15,0.24-0.3,0.35-0.46c0.07-0.1,0.13-0.2,0.2-0.3
			c0.01-0.01,0.01-0.02,0.02-0.03c0,0.01,0,0.01-0.01,0.02c-0.02,0.04-0.04,0.08-0.06,0.12c-0.06,0.12-0.11,0.25-0.15,0.38
			c-0.03,0.09-0.06,0.17-0.08,0.26c-0.02,0.06-0.04,0.12-0.06,0.19c-0.04,0.09-0.07,0.18-0.11,0.27c-0.04,0.09-0.09,0.17-0.15,0.25
			c-0.02,0.03-0.04,0.05-0.06,0.08c0.1-0.08,0.18-0.16,0.25-0.26c0.05-0.07,0.1-0.14,0.14-0.22c0.02-0.03,0.03-0.06,0.04-0.09
			c-0.02,0.22-0.08,0.44-0.19,0.64c0,0,0,0.01-0.01,0.01c-0.11,0.2-0.26,0.36-0.45,0.49c0.01,0,0.01,0,0.02,0
			c0.09-0.03,0.17-0.07,0.25-0.12c0.03-0.02,0.06-0.04,0.09-0.06c0,0,0.01-0.01,0.01-0.01c0.1-0.07,0.18-0.16,0.25-0.26
			c0.09-0.12,0.15-0.26,0.21-0.4c0.01-0.02,0.02-0.04,0.02-0.06c0,0,0,0.01,0,0.01c-0.02,0.08-0.03,0.15-0.05,0.23
			c-0.02,0.07-0.04,0.15-0.07,0.22c-0.03,0.1-0.08,0.19-0.13,0.27c-0.05,0.08-0.11,0.16-0.19,0.22c-0.04,0.03-0.08,0.07-0.12,0.09
			c0,0.01-0.01,0.02-0.01,0.04c0,0,0,0,0,0c0.05-0.03,0.09-0.06,0.14-0.09c0.07-0.05,0.14-0.12,0.2-0.19
			c0.03-0.04,0.06-0.09,0.1-0.13c-0.01,0.02-0.01,0.04-0.02,0.06c-0.03,0.08-0.07,0.15-0.13,0.21c-0.06,0.07-0.12,0.13-0.2,0.18
			c-0.03,0.02-0.07,0.04-0.11,0.06c0,0,0,0.01,0,0.01c0.07-0.02,0.13-0.05,0.2-0.09c0.07-0.05,0.14-0.1,0.2-0.16
			c-0.03,0.06-0.06,0.12-0.1,0.17c-0.05,0.07-0.11,0.13-0.18,0.17c-0.05,0.03-0.1,0.06-0.16,0.09c-0.01,0.01-0.03,0.01-0.04,0.02
			c-0.07,0.03-0.14,0.05-0.22,0.07c-0.02,0.01-0.04,0.01-0.05,0.02c0,0,0,0,0,0c0.1-0.02,0.2-0.03,0.29-0.02
			c0.06,0,0.11,0.02,0.17,0.03c0,0-0.01,0-0.01,0c-0.06,0.01-0.11,0.01-0.17,0.02c0,0,0,0,0,0c-0.11,0.02-0.22,0.05-0.32,0.1
			c-0.03,0.01-0.05,0.03-0.08,0.05c0,0,0,0,0,0c0.01,0,0.01,0,0.02-0.01c0.04-0.01,0.07-0.03,0.11-0.03c0.08-0.02,0.17-0.02,0.24,0
			c0.04,0.01,0.07,0.02,0.11,0.04c0.01,0,0.01,0.01,0.02,0.01c-0.05,0-0.09,0-0.13,0.01c-0.02,0.16-0.04,0.31-0.05,0.43
			c-0.01,0.11-0.01,0.21,0,0.29c0.01,0.08-0.06,0.14-0.13,0.13c-0.19-0.02-0.35-0.06-0.5-0.11c-0.04-0.01-0.09-0.03-0.13-0.05
			c-0.08-0.03-0.16-0.07-0.23-0.11c-0.24-0.15-0.4-0.36-0.48-0.63c-0.04-0.13-0.05-0.28-0.06-0.44c0,0,0,0,0,0c0,0,0,0,0,0
			c0-0.1,0-0.2,0.01-0.3c-0.01-0.04-0.03-0.08-0.04-0.12c-0.02-0.09-0.04-0.18-0.06-0.27c-0.01-0.02-0.01-0.05-0.01-0.07
			c0,0,0.01,0,0.01,0.01c0.03,0.04,0.05,0.09,0.08,0.13c0.02,0.02,0.04,0.05,0.06,0.07c0.03,0.04,0.07,0.07,0.11,0.11
			c0.09,0.07,0.19,0.13,0.31,0.16c0.08,0.02,0.16,0.03,0.24,0.03c0.02,0,0.04,0,0.06,0c0,0-0.01-0.01-0.01-0.01
			c-0.04-0.02-0.08-0.04-0.12-0.05c-0.11-0.05-0.23-0.1-0.33-0.17c-0.09-0.06-0.17-0.14-0.23-0.23c-0.02-0.03-0.04-0.06-0.06-0.1
			c-0.02-0.05-0.05-0.09-0.07-0.14c-0.05-0.12-0.07-0.25-0.08-0.38c0-0.01,0-0.02,0-0.03c0-0.01,0-0.02,0-0.03
			c0.02,0.07,0.05,0.14,0.08,0.21c0.03,0.07,0.08,0.13,0.13,0.19c0.01,0.02,0.03,0.03,0.05,0.05c0.05,0.05,0.1,0.1,0.12,0.1
			c0,0,0,0,0,0c-0.04-0.04-0.08-0.09-0.11-0.14c-0.01-0.02-0.03-0.04-0.04-0.06c-0.04-0.06-0.08-0.13-0.1-0.2
			c-0.06-0.14-0.08-0.28-0.07-0.44c0.01-0.13,0.03-0.25,0.07-0.37c0,0,0,0,0-0.01c0,0.01,0,0.02,0,0.03c0,0.08,0,0.15,0.02,0.23
			c0.02,0.1,0.06,0.2,0.12,0.29c0.03,0.04,0.06,0.08,0.1,0.12c0,0,0.01,0.01,0.01,0.01c0.08,0.08,0.17,0.13,0.28,0.17
			c0.07,0.02,0.13,0.04,0.2,0.04c-0.01,0-0.01-0.01-0.02-0.01c-0.09-0.04-0.18-0.08-0.26-0.13c-0.07-0.04-0.13-0.09-0.18-0.15
			c-0.05-0.06-0.1-0.13-0.13-0.21c-0.05-0.12-0.07-0.24-0.07-0.37c0-0.15,0.02-0.29,0.06-0.43c0.02-0.07,0.04-0.15,0.06-0.22
			c0.02-0.07,0.04-0.13,0.07-0.2c0.01-0.03,0.02-0.05,0.03-0.08c0,0,0,0,0,0c-0.01,0.12,0,0.24,0.03,0.35
			c0.03,0.12,0.11,0.29,0.14,0.32c-0.01-0.02-0.02-0.04-0.02-0.06c-0.05-0.13-0.09-0.27-0.1-0.41c-0.01-0.1,0-0.2,0.01-0.31
			c0.01-0.11,0.04-0.22,0.07-0.33c0.02-0.05,0.04-0.11,0.06-0.16c0.05-0.13,0.11-0.26,0.17-0.38c0.07-0.14,0.15-0.28,0.24-0.41
			c0.06-0.08,0.12-0.16,0.18-0.24c0.02-0.02,0.03-0.04,0.05-0.06c0.01-0.01,0.03-0.03,0.04-0.04c-0.01,0.06-0.03,0.11-0.04,0.17
			c-0.02,0.11-0.03,0.21,0,0.32c0.01,0.06,0.04,0.12,0.07,0.18c0.01,0.01,0.01,0.02,0.02,0.03c0.01,0.01,0.01,0.02,0.02,0.03
			c0,0,0,0,0-0.01c-0.03-0.11-0.04-0.23-0.04-0.34c0.01-0.11,0.03-0.22,0.07-0.32c0.03-0.08,0.08-0.16,0.13-0.24
			c0.05-0.06,0.1-0.12,0.15-0.18c0.06-0.06,0.11-0.11,0.18-0.16c0.02-0.02,0.04-0.03,0.07-0.05c0.03-0.02,0.05-0.03,0.08-0.05
			c0.02-0.01,0.04-0.02,0.06-0.03c0.13-0.05,0.26-0.05,0.38,0.04c0.06,0.05,0.12,0.1,0.17,0.16c0.01,0.01,0.02,0.02,0.02,0.03
			c0.02,0.03,0.03,0.06,0.05,0.09c0,0.01,0.01,0.02,0.01,0.03c0,0,0,0.01,0.01,0.01C42.67,8.77,42.69,8.86,42.69,8.95z M43.5,6.64
			C43.47,6.82,43.42,7,43.34,7.18c-0.05,0.12-0.11,0.25-0.17,0.37c-0.05,0.11-0.15,0.18-0.26,0.21c-0.08,0.02-0.17,0.03-0.27,0.05
			c-0.16,0.03-0.32,0.04-0.48,0.04c-0.15,0-0.3-0.02-0.44-0.06c-0.14-0.04-0.24-0.12-0.31-0.23c-0.07-0.11-0.09-0.27-0.05-0.48
			c0.03-0.19,0.09-0.38,0.17-0.55c0.05-0.12,0.11-0.24,0.17-0.37c0.05-0.11,0.15-0.19,0.27-0.21c0.08-0.02,0.17-0.03,0.26-0.04
			c0.17-0.02,0.32-0.03,0.47-0.03c0.16,0,0.3,0.02,0.44,0.06c0.13,0.04,0.24,0.12,0.31,0.23C43.52,6.27,43.54,6.43,43.5,6.64z"/>
	</g>
	<g>
		<path class="st0" d="M49.07,8.39C48.91,8.21,48.67,8.08,48.38,8c-0.05-0.01-0.09-0.02-0.14-0.02c-0.24,0-0.45,0.16-0.51,0.39
			c-0.04,0.14-0.09,0.3-0.17,0.48c-0.11,0.27-0.26,0.58-0.43,0.92c-0.17,0.34-0.38,0.71-0.63,1.1c-0.15,0.25-0.31,0.5-0.48,0.77
			c0.02-0.38,0.05-0.73,0.07-1.05c0.03-0.45,0.03-0.85,0.01-1.19c-0.03-0.39-0.13-0.69-0.3-0.91c-0.13-0.18-0.4-0.4-0.89-0.4
			c-0.26,0-0.51,0.03-0.73,0.08c-0.16,0.04-0.32,0.09-0.49,0.15c-0.27,0.1-0.41,0.4-0.31,0.67c0.09,0.24,0.14,0.54,0.17,0.9
			c0.04,0.47,0.05,0.98,0.05,1.54l-0.01,1.71c0,0.56,0.01,1.08,0.05,1.56c0.01,0.19,0.13,0.36,0.3,0.44
			c0.02,0.01,0.05,0.02,0.08,0.03c0.12,0.04,0.27,0.06,0.45,0.06c0.17,0,0.35-0.02,0.58-0.06c0.16-0.03,0.28-0.06,0.38-0.08
			c0.13-0.04,0.25-0.12,0.32-0.24c0.23-0.39,0.49-0.79,0.76-1.19c0.29-0.42,0.59-0.84,0.9-1.25c0.31-0.41,0.59-0.81,0.86-1.17
			c0.27-0.37,0.49-0.72,0.68-1.04c0.2-0.34,0.32-0.63,0.36-0.88C49.38,8.86,49.22,8.56,49.07,8.39z M48.96,9.27
			c-0.04,0.21-0.14,0.46-0.32,0.77c-0.09,0.15-0.19,0.31-0.3,0.48c-0.11,0.17-0.23,0.34-0.36,0.53c-0.13,0.18-0.27,0.37-0.41,0.57
			c-0.14,0.19-0.29,0.4-0.44,0.6c-0.31,0.41-0.61,0.83-0.91,1.25c-0.28,0.4-0.54,0.81-0.78,1.21c-0.01,0.02-0.03,0.04-0.05,0.05
			c-0.02,0.01-0.04,0.03-0.06,0.03c-0.04,0.01-0.09,0.02-0.15,0.04c-0.03,0.01-0.06,0.01-0.09,0.02c-0.03,0.01-0.07,0.01-0.11,0.02
			c-0.2,0.04-0.37,0.05-0.52,0.05c-0.14,0-0.26-0.01-0.34-0.04c-0.01,0-0.02-0.01-0.03-0.01c0,0-0.01,0-0.01-0.01
			c-0.05-0.02-0.09-0.07-0.1-0.13c0-0.01,0-0.02,0-0.02c-0.01-0.12-0.02-0.24-0.02-0.36c-0.01-0.25-0.02-0.5-0.02-0.77
			c0-0.13,0-0.27,0-0.41c0-0.57,0.01-1.14,0.01-1.71c0-0.14,0-0.28,0-0.42c0-0.14,0-0.27-0.01-0.4c-0.01-0.26-0.02-0.51-0.04-0.75
			c-0.01-0.1-0.02-0.19-0.03-0.28c-0.02-0.18-0.06-0.35-0.1-0.5c-0.02-0.07-0.04-0.15-0.07-0.21c-0.03-0.1,0.02-0.2,0.11-0.24
			c0.08-0.03,0.16-0.06,0.23-0.08s0.15-0.04,0.22-0.06c0.19-0.05,0.41-0.07,0.65-0.07c0.28,0,0.48,0.09,0.61,0.26
			c0.03,0.04,0.06,0.09,0.09,0.14c0.03,0.05,0.05,0.11,0.07,0.17c0.04,0.12,0.06,0.26,0.08,0.42c0.01,0.08,0.01,0.16,0.01,0.25
			c0.01,0.17,0,0.36,0,0.57c0,0.1-0.01,0.21-0.02,0.32c-0.02,0.22-0.03,0.45-0.05,0.69c-0.01,0.12-0.02,0.25-0.02,0.38
			c-0.01,0.13-0.02,0.26-0.03,0.39c-0.01,0.14-0.02,0.28-0.02,0.42c0,0.01,0,0.02,0,0.03c-0.01,0.14-0.01,0.28-0.01,0.42
			c0,0,0,0,0,0c0.13-0.2,0.26-0.4,0.39-0.6c0.14-0.22,0.27-0.43,0.4-0.64c0.13-0.21,0.26-0.41,0.38-0.61
			c0.06-0.1,0.12-0.2,0.18-0.29c0.06-0.1,0.11-0.19,0.17-0.28c0.11-0.19,0.2-0.37,0.29-0.54c0.04-0.09,0.09-0.17,0.13-0.25
			c0.04-0.08,0.08-0.16,0.12-0.24c0.07-0.16,0.14-0.31,0.2-0.45c0.08-0.2,0.15-0.38,0.19-0.53c0.01-0.05,0.05-0.09,0.09-0.11
			c0.02-0.01,0.04-0.02,0.07-0.02c0.02,0,0.05,0,0.07,0c0.06,0.02,0.11,0.03,0.16,0.05c0.15,0.06,0.27,0.14,0.36,0.23
			c0.07,0.08,0.12,0.18,0.15,0.28c0.01,0.05,0.02,0.11,0.02,0.17C48.98,9.14,48.97,9.2,48.96,9.27z"/>
		<path class="st0" d="M45.67,9c0.04,0.12,0.06,0.26,0.08,0.42C45.74,9.27,45.71,9.13,45.67,9z"/>
		<polygon class="st0" points="45.62,12.9 45.62,12.9 45.62,12.9 		"/>
		<path class="st0" d="M45.34,14.77c-0.04,0.01-0.09,0.02-0.15,0.04C45.24,14.79,45.3,14.78,45.34,14.77z"/>
		<path class="st0" d="M45.62,12.9c0-0.14,0.01-0.28,0.01-0.42C45.62,12.62,45.62,12.76,45.62,12.9L45.62,12.9z"/>
		<polygon class="st0" points="45.62,12.9 45.62,12.9 45.62,12.9 		"/>
	</g>
	<g>
		<path class="st0" d="M52.23,9.2c-0.17,0-0.34,0.1-0.51,0.31c-0.17,0.2-0.32,0.47-0.47,0.79c-0.15,0.32-0.28,0.65-0.38,1
			c-0.02,0.08-0.05,0.16-0.07,0.24c0.01,0,0.02-0.01,0.03-0.01h0.14c0.27,0,0.51-0.07,0.72-0.2c0.21-0.14,0.39-0.33,0.54-0.58
			c0.14-0.25,0.25-0.54,0.3-0.87c0.04-0.2,0.03-0.36-0.03-0.49C52.46,9.26,52.36,9.2,52.23,9.2z M52.2,9.82
			c-0.05,0.29-0.14,0.54-0.26,0.75c-0.12,0.2-0.26,0.35-0.43,0.46c-0.07,0.05-0.15,0.08-0.23,0.11c0.08-0.24,0.17-0.48,0.28-0.7
			c0.14-0.29,0.28-0.53,0.43-0.72c0.08-0.1,0.16-0.16,0.22-0.18C52.22,9.59,52.23,9.67,52.2,9.82z"/>
		<path class="st0" d="M54.28,8.7c-0.35-0.34-0.86-0.51-1.52-0.51c-0.54,0-1.06,0.11-1.55,0.31c-0.48,0.2-0.93,0.49-1.33,0.85
			c-0.4,0.36-0.74,0.79-1.01,1.28c-0.27,0.49-0.46,1.02-0.56,1.59c-0.1,0.59-0.08,1.11,0.06,1.55c0.15,0.47,0.42,0.84,0.8,1.09
			c0.37,0.25,0.85,0.38,1.41,0.38c0.57,0,1.13-0.14,1.65-0.42c0.5-0.26,0.95-0.64,1.34-1.12c0.07-0.09,0.12-0.21,0.12-0.32
			c0-0.25-0.13-0.46-0.36-0.59c-0.08-0.04-0.16-0.06-0.25-0.06c-0.16,0-0.31,0.07-0.41,0.19c-0.46,0.55-0.91,0.83-1.35,0.83
			c-0.23,0-0.31-0.09-0.37-0.21c-0.05-0.12-0.11-0.43,0.01-1.16c0.01,0,0.01,0,0.02,0c0.18,0.03,0.37,0.04,0.56,0.04
			c0.53,0,1.02-0.09,1.46-0.28c0.44-0.19,0.81-0.46,1.1-0.8c0.29-0.35,0.48-0.75,0.56-1.21C54.78,9.55,54.65,9.06,54.28,8.7z
			 M54.33,10.09c-0.07,0.39-0.23,0.74-0.49,1.04c-0.25,0.3-0.58,0.54-0.97,0.71c-0.39,0.17-0.83,0.25-1.32,0.25
			c-0.18,0-0.35-0.01-0.51-0.04c-0.1-0.02-0.19-0.03-0.28-0.06c-0.02-0.01-0.04-0.02-0.06-0.03c-0.02,0.1-0.04,0.19-0.06,0.28
			c-0.12,0.68-0.12,1.15,0,1.44c0.12,0.28,0.35,0.43,0.68,0.43c0.55,0,1.08-0.32,1.61-0.95c0.06-0.07,0.15-0.09,0.23-0.05
			c0.12,0.06,0.18,0.15,0.18,0.28c0,0.04-0.02,0.08-0.04,0.11c-0.36,0.45-0.77,0.79-1.23,1.03c-0.48,0.25-0.97,0.38-1.49,0.38
			c-0.5,0-0.9-0.11-1.22-0.32c-0.32-0.22-0.54-0.52-0.67-0.92c-0.13-0.39-0.14-0.86-0.05-1.39c0.09-0.53,0.27-1.02,0.52-1.48
			c0.25-0.46,0.57-0.85,0.94-1.19c0.37-0.34,0.78-0.6,1.23-0.79c0.45-0.19,0.92-0.29,1.42-0.29c0.57,0,1,0.14,1.28,0.41
			C54.32,9.22,54.42,9.6,54.33,10.09z"/>
	</g>
	<path class="st0" d="M42.01,9c-0.05,0.09-0.1,0.18-0.15,0.28c-0.05,0.11-0.1,0.22-0.15,0.33c-0.04,0.09-0.07,0.18-0.11,0.27
		c-0.03,0.09-0.06,0.17-0.09,0.26c-0.03,0.07-0.05,0.14-0.07,0.22c-0.02,0.07-0.04,0.13-0.06,0.2c-0.02,0.08-0.04,0.15-0.06,0.23
		c-0.02,0.09-0.04,0.18-0.07,0.26c-0.02,0.07-0.03,0.14-0.05,0.21c-0.02,0.12-0.05,0.24-0.07,0.37c-0.03,0.15-0.05,0.29-0.07,0.44
		c-0.02,0.16-0.04,0.33-0.06,0.49c-0.02,0.14-0.03,0.27-0.04,0.41c-0.01,0.12-0.02,0.24-0.03,0.37c-0.01,0.16-0.02,0.32-0.02,0.49
		c-0.01,0.12-0.01,0.25-0.01,0.37c-0.01,0.15,0,0.31,0.01,0.46c0,0.01,0,0.02,0,0.03c0,0.01,0,0.02,0,0.03c0,0,0,0,0-0.01
		c0.01-0.07,0.03-0.14,0.04-0.21c0.02-0.18,0.04-0.36,0.06-0.54c0.01-0.11,0.02-0.22,0.03-0.34c0.01-0.17,0.03-0.33,0.05-0.5
		c0.01-0.11,0.02-0.22,0.03-0.33c0.01-0.14,0.03-0.27,0.05-0.41c0.02-0.15,0.04-0.31,0.06-0.46c0.02-0.16,0.05-0.32,0.08-0.47
		c0.03-0.14,0.05-0.28,0.08-0.42c0.02-0.11,0.05-0.22,0.07-0.33c0.02-0.09,0.04-0.17,0.07-0.26c0.03-0.1,0.05-0.2,0.08-0.3
		c0.03-0.1,0.06-0.2,0.09-0.3c0.02-0.06,0.04-0.11,0.06-0.17c0.03-0.09,0.06-0.17,0.09-0.26c0.03-0.09,0.07-0.18,0.1-0.27
		c0.02-0.06,0.04-0.11,0.07-0.17c0,0,0,0,0,0C42.02,8.98,42.02,8.99,42.01,9z"/>
</g>
</svg>
